<svg xmlns="http://www.w3.org/2000/svg" width="45.038" height="54.881" viewBox="0 0 45.038 54.881">
  <g id="Group_167339" data-name="Group 167339" transform="translate(-1380 -79)">
    <path id="Path_61449" data-name="Path 61449" d="M-1023.25-3014.346c.371,1.13.713,2.171,1.05,3.213q2.031,6.256,4.059,12.516c.243.748.226.754,1.015.754h15.892a4.548,4.548,0,0,1,.471.048l.01.072c-.092.072-.182.138-.275.212l-12.091,8.838c-.34.249-.672.51-1.005.767-.386.3-.42.414-.275.865l3.8,11.763q.614,1.9,1.223,3.811c.03.092.048.189.088.352-.118-.072-.185-.106-.244-.15l-13.171-9.6c-.519-.378-.6-.378-1.132.007l-12.945,9.434c-.124.089-.252.172-.432.293a2.329,2.329,0,0,1,.044-.259c.438-1.377.851-2.754,1.333-4.119a4.3,4.3,0,0,1,.758-1.227,100.563,100.563,0,0,1,15.309-14.958c.658-.526,1.34-1.023,2-1.543a3.59,3.59,0,0,0,.366-.379l-.05-.085c-.563.138-1.135.237-1.686.406a50.918,50.918,0,0,0-12.492,5.434.643.643,0,0,1-.826-.033q-6.523-4.82-13.053-9.622a3.116,3.116,0,0,1-.287-.267l.03-.07h16.539c.541,0,.61-.05.779-.572l5.035-15.485C-1023.37-3014.038-1023.321-3014.153-1023.25-3014.346Z" transform="translate(2425.791 3093.346)" fill="#fff"/>
    <path id="Path_61450" data-name="Path 61450" d="M-833.861-2160.84c.138-.354.259-.689.4-1.011a.242.242,0,0,1,.208-.08c.384.078.761.2,1.148.253a3.175,3.175,0,0,0,1.6-.072.862.862,0,0,0,.614-.736.811.811,0,0,0-.454-.914c-.468-.225-.953-.413-1.427-.633a8.568,8.568,0,0,1-.862-.413,2.044,2.044,0,0,1-.981-2.157,2.283,2.283,0,0,1,2.115-2.065,4.572,4.572,0,0,1,2.139.172c.587.185.775.662.457,1.115a.3.3,0,0,1-.369.137,4.537,4.537,0,0,0-1.947-.187,1.764,1.764,0,0,0-.488.171.815.815,0,0,0-.452.677.814.814,0,0,0,.359.73,7.378,7.378,0,0,0,.975.494c.559.275,1.14.5,1.672.815a1.928,1.928,0,0,1,.871,2.1,2.083,2.083,0,0,1-1.351,1.79,5.09,5.09,0,0,1-2.515.242,13.052,13.052,0,0,1-1.443-.3A2.166,2.166,0,0,1-833.861-2160.84Z" transform="translate(2225.515 2294.236)" fill="#fff"/>
    <path id="Path_61451" data-name="Path 61451" d="M-637.086-2127.254a3.194,3.194,0,0,1-1.675.529,2.076,2.076,0,0,1-2.216-1.59,4.576,4.576,0,0,1,.049-2.938,2.71,2.71,0,0,1,2.243-1.79,7.127,7.127,0,0,1,2.772.164c.191.04.159.17.159.293v4.287c.018.43.144.566.57.618.336.041.463.3.225.551a1.145,1.145,0,0,1-.625.332,1.4,1.4,0,0,1-1.5-.456Zm-.176-2.775v-1.29c-.008-.661.12-.583-.631-.625a1.439,1.439,0,0,0-1.569.9,3.247,3.247,0,0,0,.076,2.43,1,1,0,0,0,.762.608,1.963,1.963,0,0,0,1.155-.1.3.3,0,0,0,.211-.333c-.011-.527,0-1.063,0-1.594Z" transform="translate(2043.443 2260.583)" fill="#fff"/>
    <path id="Path_61452" data-name="Path 61452" d="M-725.615-2153.189a4.22,4.22,0,0,1-2.626.235,1.454,1.454,0,0,1-1.008-1.588c0-1.053-.01-2.108,0-3.168,0-.246-.076-.327-.311-.31s-.435,0-.719,0c.07-.336.12-.628.2-.909.015-.051.167-.084.256-.086.534-.02.536-.015.571-.551.018-.257.021-.514.047-.767.008-.072.067-.186.121-.2.427-.087.859-.153,1.332-.232,0,.453.014.881,0,1.307-.012.262.069.354.339.344.539-.018,1.08,0,1.673,0-.058.342-.1.661-.178.975-.014.055-.154.112-.24.115-.384.013-.77,0-1.154,0-.432,0-.432,0-.432.446v2.478c0,.9.307,1.165,1.206,1.039.212-.03.479-.138.627-.042s.138.375.2.574C-725.677-2153.423-725.652-2153.326-725.615-2153.189Z" transform="translate(2127.626 2286.695)" fill="#fff"/>
    <path id="Path_61453" data-name="Path 61453" d="M-521.283-2126.1c-.482,0-.92.009-1.358-.01-.057,0-.15-.138-.154-.216-.016-.357-.008-.713-.008-1.072v-3.161c0-.55-.109-.8-.689-.779-.061,0-.186-.124-.176-.17a.912.912,0,0,1,.18-.481,1.632,1.632,0,0,1,1.686-.072,3.462,3.462,0,0,1,.449.5,2.616,2.616,0,0,1,2.429-.628c-.138.4-.255.787-.4,1.165-.019.051-.138.087-.2.095-.326.037-.656.052-.98.1a2.1,2.1,0,0,0-.413.129.513.513,0,0,0-.372.577c.021,1.228.008,2.455.008,3.682Z" transform="translate(1932.379 2259.772)" fill="#fff"/>
  </g>
</svg>
