<svg xmlns="http://www.w3.org/2000/svg" width="73.268" height="54.781" viewBox="0 0 73.268 54.781">
  <g id="Group_167340" data-name="Group 167340" transform="translate(-481 -177)">
    <path id="Path_61430" data-name="Path 61430" d="M57.583,640H58.71l1.931,3.034L62.546,640h1.126l.307,6.423H62.8l-.211-4.448-1.691,2.62h-.57l-1.7-2.554-.212,4.382H57.276Z" transform="translate(437.696 -414.817)" fill="#fff"/>
    <path id="Path_61431" data-name="Path 61431" d="M65.395,640h1.252l2.436,6.423H67.734l-.558-1.627H64.793l-.558,1.627H62.963Zm1.435,3.795-.848-2.494-.858,2.494Z" transform="translate(441.161 -414.817)" fill="#fff"/>
    <path id="Path_61432" data-name="Path 61432" d="M68.347,640h2.43a2.585,2.585,0,0,1,1.03.184,1.944,1.944,0,0,1,.684.465,1.857,1.857,0,0,1,.381.623,1.905,1.905,0,0,1,.121.644,2.134,2.134,0,0,1-.266,1.075,1.89,1.89,0,0,1-.814.747l1.484,2.686H72.029l-1.3-2.533H69.514v2.533H68.347Zm2.44,2.889a.941.941,0,0,0,.718-.271.921.921,0,0,0,.256-.655.89.89,0,0,0-.27-.673.965.965,0,0,0-.7-.261H69.514V642.9Z" transform="translate(444.441 -414.817)" fill="#fff"/>
    <path id="Path_61433" data-name="Path 61433" d="M73.19,640h2.43a2.585,2.585,0,0,1,1.03.184,1.944,1.944,0,0,1,.684.465,1.8,1.8,0,0,1,.38.623,1.865,1.865,0,0,1,.121.644,2.15,2.15,0,0,1-.264,1.075,1.9,1.9,0,0,1-.814.746l1.484,2.686H76.872l-1.3-2.533H74.357v2.533H73.19Zm2.438,2.889a.935.935,0,0,0,.716-.271.915.915,0,0,0,.257-.655.9.9,0,0,0-.27-.673.965.965,0,0,0-.7-.261H74.355V642.9Z" transform="translate(447.392 -414.817)" fill="#fff"/>
    <path id="Path_61434" data-name="Path 61434" d="M78.215,640h1.213v6.423H78.215Z" transform="translate(450.453 -414.817)" fill="#fff"/>
    <path id="Path_61435" data-name="Path 61435" d="M84.129,646.663a3.2,3.2,0,0,1-1.31-.265,3.3,3.3,0,0,1-1.059-.726,3.438,3.438,0,0,1-.715-1.08,3.486,3.486,0,0,1,0-2.638,3.418,3.418,0,0,1,.71-1.075,3.36,3.36,0,0,1,3.684-.723,3.4,3.4,0,0,1,1.059.722,3.431,3.431,0,0,1,0,4.793,3.336,3.336,0,0,1-1.059.726,3.2,3.2,0,0,1-1.31.266Zm0-1.146a1.951,1.951,0,0,0,1.513-.679,2.254,2.254,0,0,0,.414-.728,2.709,2.709,0,0,0,0-1.738,2.2,2.2,0,0,0-.414-.718,1.96,1.96,0,0,0-.657-.483,2.156,2.156,0,0,0-1.719,0,1.962,1.962,0,0,0-.644.483,2.174,2.174,0,0,0-.414.718,2.679,2.679,0,0,0,0,1.738,2.216,2.216,0,0,0,.414.728,1.932,1.932,0,0,0,1.513.679Z" transform="translate(452.021 -414.882)" fill="#fff"/>
    <path id="Path_61436" data-name="Path 61436" d="M88.1,641.072H85.926V640h5.566v1.069H89.315v5.354H88.1Z" transform="translate(455.151 -414.817)" fill="#fff"/>
    <path id="Path_61437" data-name="Path 61437" d="M92.84,641.072H90.663V640h5.568v1.069H94.054v5.354H92.84Z" transform="translate(458.038 -414.817)" fill="#fff"/>
    <path id="Path_61438" data-name="Path 61438" d="M95.4,651.823H106.23L88.1,610.719l-9.084,4.2,6.336,14.308L82.4,635.9,71.053,610.059l-9.189,4,7.38,16.5-.029.066C64.661,641.041,59.077,643.9,58.528,644.1a11.416,11.416,0,0,1-4.16.784c-.447,0-.892-.026-1.32-.068L48.594,653.9a10.029,10.029,0,0,0,10.842-.684l-.016.034s4.2-2.031,8.7-13.138c0-.01,1.651-3.558,2.536-5.814l.089-.256,7.914,17.789H89.479L83.9,639.315l2.958-6.658Z" transform="translate(432.406 -433.059)" fill="#fff"/>
  </g>
</svg>
