<svg xmlns="http://www.w3.org/2000/svg" width="99.255" height="17.799" viewBox="0 0 99.255 17.799">
  <g id="Group_167306" data-name="Group 167306" transform="translate(-1175.99 -194.204)">
    <g id="Group_45635" data-name="Group 45635" transform="translate(414 -462.081)">
      <path id="Union_2" data-name="Union 2" d="M67.8,17.232A1.914,1.914,0,0,1,67.2,15.77a2.088,2.088,0,0,1,.61-1.562,2.174,2.174,0,0,1,1.591-.6,3.746,3.746,0,0,1,.843.089,3.065,3.065,0,0,1,.734.274c-.031.093-.056.174-.075.242s-.041.152-.062.249h-.095a1.791,1.791,0,0,0-.588-.44,1.611,1.611,0,0,0-.691-.164,1.524,1.524,0,0,0-1.209.515,2,2,0,0,0-.454,1.374,1.818,1.818,0,0,0,.455,1.3,1.575,1.575,0,0,0,1.209.486,2.611,2.611,0,0,0,.976-.195v-.413c0-.263,0-.466-.012-.611s-.024-.3-.052-.476a2.675,2.675,0,0,0,.617,0,1.515,1.515,0,0,0-.031.246q-.009.145-.014.478v.11c0,.27,0,.463.007.578a1.788,1.788,0,0,0,.031.284,4.953,4.953,0,0,1-1.648.253,2.164,2.164,0,0,1-1.548-.558Zm-31.715,0a1.968,1.968,0,0,1-.568-1.463,2.109,2.109,0,0,1,.6-1.562,2.134,2.134,0,0,1,1.572-.6,3.576,3.576,0,0,1,.688.063,3.3,3.3,0,0,1,.634.2c-.031.093-.055.175-.075.243s-.04.149-.06.244l-.1.008A1.378,1.378,0,0,0,38.292,14a1.478,1.478,0,0,0-1.74.379,2.075,2.075,0,0,0-.43,1.371,1.884,1.884,0,0,0,.44,1.281,1.4,1.4,0,0,0,1.106.5,1.868,1.868,0,0,0,.679-.127,1.568,1.568,0,0,0,.549-.351l.049.065c-.014.065-.024.123-.032.173a1.725,1.725,0,0,0-.018.176,2.6,2.6,0,0,1-.624.244,3.031,3.031,0,0,1-.711.077,2.011,2.011,0,0,1-1.479-.562Zm-31.32,0a1.906,1.906,0,0,1-.6-1.462,2.088,2.088,0,0,1,.613-1.562,2.2,2.2,0,0,1,1.6-.6,2.18,2.18,0,0,1,1.558.559,1.914,1.914,0,0,1,.6,1.461,2.088,2.088,0,0,1-.615,1.564,2.2,2.2,0,0,1-1.6.6,2.18,2.18,0,0,1-1.553-.559Zm.44-2.857a2.066,2.066,0,0,0-.43,1.37,1.9,1.9,0,0,0,.43,1.3,1.451,1.451,0,0,0,1.144.488,1.42,1.42,0,0,0,1.15-.512,2.075,2.075,0,0,0,.43-1.371,1.9,1.9,0,0,0-.43-1.3,1.452,1.452,0,0,0-1.15-.488,1.417,1.417,0,0,0-1.147.517Zm86.55,3.416h-.085q-.745-.848-1.9-2.079L88.8,14.7v1q0,.724.02,1.3c.008.245.015.417.022.512a1.662,1.662,0,0,0,.023.212,1.233,1.233,0,0,0-.212-.016,1.209,1.209,0,0,0-.211.016c0-.037.013-.11.018-.2s.009-.271.016-.522q.008-.585.008-1.3t-.008-1.29c-.008-.252-.013-.425-.016-.522a1.838,1.838,0,0,0-.018-.2h.182q.745.851,1.9,2.08l.96,1V15.738q0-.745-.013-1.343-.01-.38-.018-.525a1.377,1.377,0,0,0-.018-.2,1.209,1.209,0,0,0,.414,0,1.375,1.375,0,0,0-.018.2c0,.1-.011.273-.016.524q-.01.6-.01,1.341,0,1.231.026,2.054Zm-25.589,0h-.085q-.743-.848-1.9-2.079L63.208,14.7v1q0,.724.02,1.3c.009.245.015.417.022.512s.015.168.023.212a1.334,1.334,0,0,0-.422,0,1.673,1.673,0,0,0,.016-.2c0-.1.011-.271.019-.522q.008-.585.008-1.3t-.008-1.29c-.008-.252-.014-.425-.019-.522a1.677,1.677,0,0,0-.016-.2h.184q.743.851,1.9,2.08l.96,1V15.738q0-.745-.012-1.343c-.008-.253-.013-.429-.018-.525a1.538,1.538,0,0,0-.018-.2,1.08,1.08,0,0,0,.207.018,1.066,1.066,0,0,0,.207-.018,1.593,1.593,0,0,0-.016.2c0,.1-.011.273-.018.524q-.009.6-.009,1.341,0,1.231.025,2.054Zm-10.126,0h-.085q-.743-.848-1.9-2.079L53.082,14.7v1q0,.724.02,1.3c.009.245.015.417.022.512s.015.168.023.212a1.341,1.341,0,0,0-.423,0,1.442,1.442,0,0,0,.018-.2q.008-.145.018-.522.009-.585.009-1.3t-.009-1.29q-.01-.377-.018-.522a1.444,1.444,0,0,0-.018-.2h.184q.745.851,1.9,2.08l.96,1V15.738q0-.745-.012-1.343-.012-.38-.018-.525a1.74,1.74,0,0,0-.018-.2,1.209,1.209,0,0,0,.413,0,1.812,1.812,0,0,0-.016.2c0,.1-.011.273-.018.524q-.009.6-.009,1.341,0,1.231.025,2.054Zm-46.079-.4a1.681,1.681,0,0,1-.407-1.234v-.418L9.542,14.4c0-.238-.009-.406-.013-.5a1.6,1.6,0,0,0-.022-.22,2.59,2.59,0,0,0,.607,0,1.782,1.782,0,0,0-.025.226c-.005.1-.012.263-.02.5q-.016.595-.016,1.341v.24a1.775,1.775,0,0,0,.307,1.137,1.136,1.136,0,0,0,.934.37,1.146,1.146,0,0,0,.964-.391,2.014,2.014,0,0,0,.3-1.237v-.11l-.01-1.354c0-.245,0-.418-.007-.513s0-.167-.01-.212a1.255,1.255,0,0,0,.421,0,1.913,1.913,0,0,0-.031.246c-.007.1-.014.256-.022.479q-.018.6-.018,1.341v.22a1.964,1.964,0,0,1-.427,1.369,1.617,1.617,0,0,1-1.255.467,1.7,1.7,0,0,1-1.242-.4Zm84.746.336c-.17-.01-.33-.015-.468-.015H93.8c-.152,0-.308,0-.468.012s-.282.019-.365.032a1.459,1.459,0,0,0,.018-.2c0-.1.01-.27.018-.521q.009-.592.009-1.333T93,14.367c-.008-.251-.013-.424-.018-.52a1.442,1.442,0,0,0-.018-.2,2.948,2.948,0,0,0,.345.031c.16.009.322.013.488.013h.44c.179,0,.338,0,.479-.013a2.841,2.841,0,0,0,.367-.041,1.071,1.071,0,0,0-.018.2,1.022,1.022,0,0,0,.018.2A2.578,2.578,0,0,0,94.729,14c-.169-.01-.33-.015-.492-.015H94.03c-.18,0-.349,0-.507.009l-.016,1.474h.52c.173,0,.349,0,.53-.015a2.943,2.943,0,0,0,.375-.037,1.138,1.138,0,0,0-.016.2,1.112,1.112,0,0,0,.016.2,3,3,0,0,0-.375-.036c-.181-.01-.358-.015-.53-.015h-.519c0,.63,0,1.178.015,1.643l.4.005h.2c.178,0,.364-.005.558-.019a3.349,3.349,0,0,0,.409-.044,1.106,1.106,0,0,0-.018.21,1.073,1.073,0,0,0,.018.2,3.72,3.72,0,0,0-.379-.043Zm-60.333,0c-.169-.01-.33-.015-.467-.015h-.44c-.151,0-.307,0-.468.012s-.281.019-.364.032a1.868,1.868,0,0,0,.018-.2c0-.1.01-.27.016-.521q.01-.592.01-1.333t-.01-1.331c-.007-.251-.013-.424-.016-.52a1.84,1.84,0,0,0-.018-.2,2.947,2.947,0,0,0,.344.031q.241.013.488.013h.44c.178,0,.338,0,.479-.013a2.841,2.841,0,0,0,.367-.041,1.07,1.07,0,0,0-.018.2,1.02,1.02,0,0,0,.018.2A2.579,2.579,0,0,0,34.4,14c-.168-.01-.33-.015-.491-.015H33.7c-.181,0-.349,0-.507.009l-.018,1.474h.521c.173,0,.349,0,.53-.015a2.987,2.987,0,0,0,.375-.037,1.132,1.132,0,0,0-.018.2,1.106,1.106,0,0,0,.018.2,3.043,3.043,0,0,0-.375-.036c-.181-.01-.358-.015-.53-.015h-.519q0,.945.015,1.643l.4.005h.2c.178,0,.364-.005.558-.019a3.348,3.348,0,0,0,.409-.044,1.106,1.106,0,0,0-.018.21,1.073,1.073,0,0,0,.018.2,3.746,3.746,0,0,0-.377-.043Zm-9.8,0c-.169-.01-.33-.015-.467-.015h-.445c-.151,0-.307,0-.467.012s-.282.019-.364.032a1.7,1.7,0,0,0,.016-.2c0-.1.01-.27.018-.521q.009-.592.009-1.333t-.008-1.331c-.008-.251-.013-.424-.018-.52a1.675,1.675,0,0,0-.016-.2,2.9,2.9,0,0,0,.343.031c.162.009.323.013.488.013H24.1c.179,0,.338,0,.479-.013a2.841,2.841,0,0,0,.367-.041,1.07,1.07,0,0,0-.018.2,1.02,1.02,0,0,0,.018.2A2.578,2.578,0,0,0,24.592,14c-.168-.01-.33-.015-.491-.015h-.207c-.18,0-.349,0-.507.009L23.37,15.47h.521c.173,0,.349,0,.53-.015a3.009,3.009,0,0,0,.376-.037,1.049,1.049,0,0,0-.018.2,1.025,1.025,0,0,0,.018.2,3.065,3.065,0,0,0-.376-.036c-.181-.01-.358-.015-.53-.015h-.519q0,.945.015,1.643l.4.005h.2c.178,0,.364-.005.558-.019a3.324,3.324,0,0,0,.409-.044,1.105,1.105,0,0,0-.018.21,1.074,1.074,0,0,0,.018.2,3.714,3.714,0,0,0-.378-.043Zm74.179-.015a3.661,3.661,0,0,0-.368.016,2.49,2.49,0,0,0-.179-.289q-.1-.145-.33-.44l-.33-.422q-.38-.485-.684-.843h-.192q0,.7.012,1.265c.007.252.013.426.018.523a1.442,1.442,0,0,0,.018.2,2.679,2.679,0,0,0-.6,0,1.705,1.705,0,0,0,.019-.2c0-.095.01-.27.015-.524q.009-.585.01-1.3t-.013-1.3c0-.253-.013-.43-.016-.526a1.537,1.537,0,0,0-.018-.2c.182.009.33.015.458.019s.22,0,.286,0c.11-.007.209-.012.3-.014s.166,0,.235,0a1.632,1.632,0,0,1,.973.24.839.839,0,0,1,.323.719.926.926,0,0,1-.478.806,1.952,1.952,0,0,1-.734.269q.3.393.711.909l.319.392.458.549c.082.1.135.155.158.176a3.668,3.668,0,0,0-.367-.022Zm-2.088-3.75v1.523a2.365,2.365,0,0,1,.268-.009,1.475,1.475,0,0,0,.855-.22.693.693,0,0,0,.32-.6.62.62,0,0,0-.246-.53,1.159,1.159,0,0,0-.706-.184c-.181,0-.346.011-.493.016Zm-10.5,3.751a2.458,2.458,0,0,0-.3.016,1.772,1.772,0,0,0,.019-.2c0-.1.009-.27.015-.52q.009-.584.01-1.3c0-.668,0-1.242-.018-1.723h-.311c-.192,0-.384.005-.578.016a2.891,2.891,0,0,0-.389.036,1.1,1.1,0,0,0,.013-.2,1.121,1.121,0,0,0-.018-.2c.22.015.457.026.726.037s.479.015.624.015h.315c.157,0,.371,0,.641-.015s.508-.023.711-.037a1.038,1.038,0,0,0-.018.2,1.024,1.024,0,0,0,.018.2,3.1,3.1,0,0,0-.4-.036q-.288-.016-.57-.016h-.22q-.018.718-.018,1.718,0,.724.009,1.3c.007.251.013.424.018.521a1.428,1.428,0,0,0,.018.2A2.469,2.469,0,0,0,86.158,17.712Zm-2.219,0a3.668,3.668,0,0,0-.367.016,2.351,2.351,0,0,0-.178-.289q-.1-.145-.336-.44l-.33-.422c-.253-.323-.481-.6-.682-.843h-.2q0,.7.011,1.265c.008.252.013.426.019.523a1.672,1.672,0,0,0,.016.2,2.67,2.67,0,0,0-.6,0,1.949,1.949,0,0,0,.025-.2c0-.095.009-.27.015-.524q.009-.585.01-1.3t-.014-1.3c-.011-.253-.011-.43-.011-.526a1.733,1.733,0,0,0-.018-.2c.181.009.33.015.458.019s.22,0,.286,0c.11-.007.209-.012.3-.014s.167,0,.235,0a1.633,1.633,0,0,1,.974.24.837.837,0,0,1,.322.719.925.925,0,0,1-.477.806,1.957,1.957,0,0,1-.734.269q.3.393.711.909l.319.392q.33.4.458.549c.082.1.134.155.158.176a2.7,2.7,0,0,0-.369-.022Zm-2.088-3.75v1.522a2.389,2.389,0,0,1,.269-.009,1.471,1.471,0,0,0,.855-.22.691.691,0,0,0,.321-.6.62.62,0,0,0-.246-.53,1.164,1.164,0,0,0-.707-.184c-.187,0-.349.011-.5.016Zm-1.613,3.75a2.828,2.828,0,0,0-.322.016,3.031,3.031,0,0,0-.088-.3q-.049-.145-.168-.427l-.33-.789a6.49,6.49,0,0,0-.73-.049,3.133,3.133,0,0,0-.741.049q-.186.42-.33.789c-.071.174-.123.308-.155.4s-.064.2-.09.321a1.648,1.648,0,0,0-.469,0,1.694,1.694,0,0,0,.1-.187c.049-.1.14-.275.268-.538q.276-.571.6-1.285.549-1.209.868-2.032h.141q.33.818.852,2.026.31.717.573,1.29l.342.725a2.889,2.889,0,0,0-.33-.016ZM78.355,15.04s-.092.22-.277.645l-.064.151a3.363,3.363,0,0,0,.573.034,5.364,5.364,0,0,0,.577-.041l-.057-.137-.51-1.174C78.433,14.867,78.355,15.04,78.355,15.04Zm-4.176,2.672a2.452,2.452,0,0,0-.3.016q.014-.1.019-.2c0-.1.009-.27.016-.521q.008-.584.008-1.3t-.008-1.291c-.008-.251-.014-.424-.019-.521a1.656,1.656,0,0,0-.016-.2c.152,0,.285.005.4.005s.21,0,.289-.005c.11-.007.2-.012.285-.014s.166,0,.238,0a1.788,1.788,0,0,1,1.053.251.893.893,0,0,1,.342.769,1.032,1.032,0,0,1-.4.87,1.841,1.841,0,0,1-1.143.311,3.558,3.558,0,0,1-.507-.027c0,.426,0,.812.011,1.157q.012.381.018.525a1.746,1.746,0,0,0,.018.2,2.458,2.458,0,0,0-.3-.019Zm.247-3.729v1.6c.121.012.251.016.39.016a1.229,1.229,0,0,0,.793-.238.769.769,0,0,0,.3-.637.681.681,0,0,0-.246-.569,1.176,1.176,0,0,0-.729-.192,4.662,4.662,0,0,0-.5.024ZM61.338,17.712a2.452,2.452,0,0,0-.3.016c.005-.037.013-.11.019-.2s.009-.27.015-.522q.009-.585.009-1.3V14.4c-.007-.253-.013-.426-.016-.522a1.865,1.865,0,0,0-.018-.2,2.256,2.256,0,0,0,.3.018,2.283,2.283,0,0,0,.3-.018,1.638,1.638,0,0,0-.018.2c0,.1-.011.27-.018.522q-.008.581-.008,1.3t.008,1.3c.007.253.014.425.018.523a1.621,1.621,0,0,0,.018.2,2.481,2.481,0,0,0-.3-.016Zm-1.346,0q-.209,0-.373.016a2.424,2.424,0,0,0-.193-.293q-.11-.144-.355-.432l-.3-.364q-.5-.584-.855-.973v.03q0,.726.011,1.307c.008.252.013.426.018.523a1.446,1.446,0,0,0,.018.2,2.67,2.67,0,0,0-.6,0,1.811,1.811,0,0,0,.016-.2c0-.1.011-.271.018-.525q.009-.585.009-1.3t-.009-1.3c-.007-.253-.014-.43-.018-.526a1.811,1.811,0,0,0-.016-.2,2.528,2.528,0,0,0,.6,0,1.459,1.459,0,0,0-.018.2c0,.1-.01.271-.018.522q-.011.527-.008,1.15h.008c.258-.22.559-.512.9-.866q.563-.574.9-.989h.308a2.33,2.33,0,0,0,.3-.018,2.527,2.527,0,0,0-.22.181c-.11.1-.3.278-.587.544l-.478.458-.615.613.638.769.653.769q.351.41.477.549a2.041,2.041,0,0,0,.158.171c-.11-.01-.231-.016-.369-.016Zm-8.4,0a2.8,2.8,0,0,0-.321.016,3,3,0,0,0-.089-.3c-.035-.1-.088-.24-.167-.427l-.33-.789a6.525,6.525,0,0,0-.731-.049,3.149,3.149,0,0,0-.742.049q-.182.421-.33.789c-.071.174-.123.308-.155.4s-.063.2-.089.321a1.538,1.538,0,0,0-.236-.016,1.513,1.513,0,0,0-.233.016,1.638,1.638,0,0,0,.11-.187q.074-.144.267-.538.276-.571.6-1.285.549-1.209.868-2.032h.142q.323.818.851,2.026.311.717.573,1.29l.342.725a2.89,2.89,0,0,0-.318-.016ZM49.712,15.04l-.276.645-.064.151a3.345,3.345,0,0,0,.571.034,5.364,5.364,0,0,0,.577-.041l-.057-.137-.51-1.174ZM45.22,17.712l-.285.016a1.7,1.7,0,0,0,.019-.2c0-.095.01-.27.016-.524q.008-.585.008-1.3V14.4c-.007-.253-.014-.429-.018-.525a1.74,1.74,0,0,0-.018-.2l.285.018.844-.018a1.971,1.971,0,0,1,1.044.22.734.734,0,0,1,.346.659.879.879,0,0,1-.416.748,1.553,1.553,0,0,1-.532.227,1.578,1.578,0,0,1,.693.243.912.912,0,0,1,.388.806.978.978,0,0,1-.449.833,1.972,1.972,0,0,1-1.171.32Zm.262-.316a2.362,2.362,0,0,0,.364.025,1.41,1.41,0,0,0,.873-.229.806.806,0,0,0,.3-.677.673.673,0,0,0-.289-.593,1.49,1.49,0,0,0-.851-.2h-.392Zm0-3.384v1.41h.36a1.24,1.24,0,0,0,.756-.212.668.668,0,0,0,.282-.562.568.568,0,0,0-.26-.489,1.19,1.19,0,0,0-.7-.182h-.031a2.291,2.291,0,0,0-.408.035Zm-4.523,3.7a2.481,2.481,0,0,0-.3.016,1.956,1.956,0,0,0,.02-.2c0-.1.009-.27.015-.52q.009-.584.009-1.3,0-1-.018-1.723h-.311c-.192,0-.384.005-.577.016a2.892,2.892,0,0,0-.39.036,1.024,1.024,0,0,0,.018-.2,1.037,1.037,0,0,0-.018-.2c.22.015.457.026.726.037s.479.015.625.015h.309c.156,0,.37,0,.641-.015s.507-.023.71-.037a1.037,1.037,0,0,0-.018.2,1.023,1.023,0,0,0,.018.2,3.1,3.1,0,0,0-.4-.036c-.193-.011-.382-.016-.57-.016h-.22q-.018.718-.018,1.718,0,.724.009,1.3c.007.251.013.424.018.521a1.428,1.428,0,0,0,.018.2,2.47,2.47,0,0,0-.3-.014Zm-11.065,0a2.47,2.47,0,0,0-.3.016,1.564,1.564,0,0,0,.019-.2c0-.1.01-.27.016-.52q.009-.585.009-1.319t-.009-1.319c-.007-.252-.014-.426-.018-.522a1.442,1.442,0,0,0-.018-.2,3.575,3.575,0,0,0,.389.031q.285.013.592.013h.358c.178,0,.337,0,.477-.013a2.9,2.9,0,0,0,.368-.041,1.157,1.157,0,0,0-.018.2,1.1,1.1,0,0,0,.018.2A2.481,2.481,0,0,0,31.427,14c-.169-.01-.33-.015-.495-.015H30.7c-.192,0-.369,0-.534.009q-.015.615-.016,1.441l.593-.005c.178,0,.358,0,.538-.015a2.883,2.883,0,0,0,.366-.036,1.225,1.225,0,0,0,0,.4,2.937,2.937,0,0,0-.343-.032c-.181-.01-.368-.018-.562-.021l-.593-.009q0,.713.011,1.281c.008.253.013.429.018.525a1.371,1.371,0,0,0,.018.2,2.482,2.482,0,0,0-.3-.016Zm-1.284,0a3.676,3.676,0,0,0-.368.016,2.48,2.48,0,0,0-.178-.289q-.1-.145-.336-.44l-.33-.422q-.38-.485-.682-.843h-.193q0,.7.011,1.265c.008.252.014.426.019.523a1.672,1.672,0,0,0,.016.2,2.671,2.671,0,0,0-.6,0,1.948,1.948,0,0,0,.019-.2c0-.095.009-.27.015-.524q.009-.585.009-1.3V14.4c-.007-.253-.013-.43-.016-.526a1.741,1.741,0,0,0-.018-.2c.182.009.33.015.458.019s.22,0,.286,0c.11-.007.208-.012.3-.014s.167,0,.236,0a1.632,1.632,0,0,1,.973.24.837.837,0,0,1,.322.719.925.925,0,0,1-.477.806,1.952,1.952,0,0,1-.734.269q.3.393.711.909l.32.392c.22.269.375.452.457.549a2.074,2.074,0,0,0,.158.176,2.638,2.638,0,0,0-.368-.022Zm-2.088-3.75v1.522a2.382,2.382,0,0,1,.269-.009,1.472,1.472,0,0,0,.855-.22.691.691,0,0,0,.321-.6.622.622,0,0,0-.245-.53,1.165,1.165,0,0,0-.707-.184c-.181,0-.344.011-.493.016Zm-6.685,3.75a2.481,2.481,0,0,0-.3.016,1.708,1.708,0,0,0,.02-.2c0-.1.009-.27.015-.521q.009-.584.009-1.3t-.009-1.291c-.007-.251-.013-.424-.016-.521a1.545,1.545,0,0,0-.019-.2h.4c.115,0,.21,0,.289-.005.1-.007.2-.012.285-.014s.166,0,.238,0a1.788,1.788,0,0,1,1.053.251.893.893,0,0,1,.342.769,1.03,1.03,0,0,1-.4.87,1.839,1.839,0,0,1-1.143.311,3.561,3.561,0,0,1-.507-.027c0,.426,0,.812.011,1.157q.012.381.018.525a1.742,1.742,0,0,0,.018.2,2.459,2.459,0,0,0-.3-.013Zm.247-3.729v1.6c.121.012.251.016.39.016a1.222,1.222,0,0,0,.792-.238.769.769,0,0,0,.3-.637.678.678,0,0,0-.246-.569,1.173,1.173,0,0,0-.728-.192A4.711,4.711,0,0,0,20.083,13.983Zm-3.346,3.729a3.654,3.654,0,0,0-.367.016,2.492,2.492,0,0,0-.179-.289L15.855,17l-.33-.422q-.38-.485-.682-.843H14.65q0,.7.012,1.265c.007.252.013.426.018.523a1.441,1.441,0,0,0,.018.2,2.679,2.679,0,0,0-.6,0,1.7,1.7,0,0,0,.019-.2c0-.095.009-.27.016-.524q.009-.585.009-1.3t-.008-1.3c-.008-.253-.014-.43-.018-.526a1.74,1.74,0,0,0-.018-.2c.182.009.33.015.458.019s.22,0,.287,0c.11-.007.208-.012.3-.014s.166,0,.235,0a1.63,1.63,0,0,1,.973.24.839.839,0,0,1,.323.719.926.926,0,0,1-.478.806,1.945,1.945,0,0,1-.734.269q.3.393.711.909l.32.392c.22.269.375.452.457.549a2.3,2.3,0,0,0,.158.176,3.675,3.675,0,0,0-.368-.022Zm-2.088-3.75v1.522a2.388,2.388,0,0,1,.269-.009,1.471,1.471,0,0,0,.855-.22.691.691,0,0,0,.321-.6.622.622,0,0,0-.245-.53,1.164,1.164,0,0,0-.707-.184c-.185,0-.348.011-.5.016ZM2.011,17.712a2.357,2.357,0,0,0-.293.016c.016-.127.03-.289.035-.481s.008-.518.008-.97v-.213c-.174-.307-.385-.668-.636-1.08L.756,14.4l-.351-.549a1.978,1.978,0,0,0-.124-.177,3.285,3.285,0,0,0,.363.018A3.261,3.261,0,0,0,1,13.67a2.515,2.515,0,0,0,.125.307c.046.1.122.237.22.42l.22.4q.287.511.514.879.22-.351.478-.828l.252-.449c.092-.162.16-.291.206-.388s.089-.21.134-.338a1.711,1.711,0,0,0,.259.018,1.648,1.648,0,0,0,.256-.018,1.978,1.978,0,0,0-.124.177q-.095.145-.351.549l-.336.549q-.346.568-.595,1v.33q0,.679.007.97a4.592,4.592,0,0,0,.036.481,2.39,2.39,0,0,0-.295-.013Zm79.6-13.568-.965,7.63H78.685L80.076,0l7.015,7.426L87.97.492h2.113L88.568,11.937ZM23.37,11.788,24.784.5,30.927.486l-.238,1.836H26.622l-.33,2.548h4.053l-.253,1.885H26l-.411,3.229h4.066s-.207,1.665-.207,1.789a11.506,11.506,0,0,1-1.828.06c-1.788,0-4.25-.045-4.25-.045Zm-16.645,0L8.132.5,14.286.486l-.237,1.836H9.983l-.33,2.548h4.053l-.253,1.885h-4.1l-.41,3.229h4.066s-.207,1.662-.207,1.788a11.5,11.5,0,0,1-1.826.06c-1.789,0-4.25-.044-4.25-.044Zm9.526-.01h-.133v.007H14.107L15.5.5l2.761.013c5.129.522,5.312,4.818,5.312,4.818.027,4.679-3.086,5.849-3.086,5.849a7.319,7.319,0,0,1-3.254.638c-.487,0-.853-.031-.98-.043Zm2.5-1.809C20.4,9.758,22.19,7.477,21.583,4.9a.22.22,0,0,0-.01-.045A3.02,3.02,0,0,0,18.8,2.325l-1.508.027-.948,7.681h.076V10.01a19.818,19.818,0,0,0,2.342-.041ZM62.5,11.759v.033H60.386L61.781.513h2.708c2.81.22,3.014,2.4,3.014,2.4a3.224,3.224,0,0,1-1.236,2.995,3.145,3.145,0,0,1,.9,4.493c-.924,1.417-3.652,1.417-3.652,1.417Zm2.867-2.2c1.209-2.235-.8-2.687-.8-2.687a3.61,3.61,0,0,0-1.42-.1l-.423,3.261.058-.005C64.838,10.277,65.37,9.561,65.37,9.561Zm-1.6-7.429-.041.185L63.367,5.1l1.1-.059a1.577,1.577,0,0,0,1-2.318,1.978,1.978,0,0,0-1.577-.6ZM36.3,11.8,33.725,7.161h0l-.274-.018L32.876,11.8H30.795L32.2.515h2.967A3.091,3.091,0,0,1,38.3,3.627,3.318,3.318,0,0,1,35.81,6.951L38.417,11.8ZM34.7,5.461A1.884,1.884,0,0,0,36.318,3.1c-.262-1.12-2.269-.79-2.269-.79L33.661,5.45ZM75.739,11.8l-.667-2.418H71.092l-1.374,2.4H67.372L74.325.041,77.873,11.8Zm-1.164-4.22-.8-2.895L72.129,7.56ZM47.035,11.8l-.666-2.418H42.392l-1.374,2.4H38.672L45.625.041,49.174,11.8Zm-1.163-4.22-.793-2.894L43.431,7.561Zm44.068,4.218L91.357.492,93.47.513l-.5,3.94L96.917.513h2.339l-4.78,4.9,4.534,6.342h-2.4L92.952,6.97l-.33.341-.563,4.484ZM49.6,11.759,51.045.517,53.023.5l-1.1,9.477h3.443l-.21,1.781ZM0,11.742,1.441.486,7.033.5l-.19,1.835H3.3l-.33,2.548H6.522L6.285,6.74H2.723l-.68,5Z" transform="translate(761.99 656.285)" fill="#fff"/>
    </g>
  </g>
</svg>
