<svg xmlns="http://www.w3.org/2000/svg" width="119.237" height="20.027" viewBox="0 0 119.237 20.027">
  <g id="Group_167338" data-name="Group 167338" transform="translate(-1166.382 -95.987)">
    <path id="client-5" d="M60.06,20.02c-2.6,0-5.779-.9-5.941-4.964a10.913,10.913,0,0,1-.081-1.709V8.711c0-1.221-.081-3.255-.081-3.336a2.874,2.874,0,0,0-.081-.491h3.987a1.032,1.032,0,0,0-.081.491c0,.162-.081,3.174-.081,3.174l-.081,3.011c0,.982,0,1.79.081,2.6a2.812,2.812,0,0,0,3.173,2.767,3.715,3.715,0,0,0,4.068-3.906,56.392,56.392,0,0,0,0-6.429l-.081-1.221a1.032,1.032,0,0,1-.081-.491h3.5a1.391,1.391,0,0,0-.081.569c-.081.245-.163,9.034,0,13.672V19.7H64.862V18.229a6.559,6.559,0,0,1-4.5,1.8Q60.211,20.027,60.06,20.02ZM2.686,19.938A15.105,15.105,0,0,1,0,19.613V16.277a1.162,1.162,0,0,0,.491.162,14.5,14.5,0,0,0,1.871.163c1.14,0,1.628-.491,1.628-1.709C4.071,13.347,4.071,6.1,3.909.569V0L7.325.081V.572c-.163,6.184.159,14.322.159,14.4A5.969,5.969,0,0,1,6.1,18.8a4.105,4.105,0,0,1-2.886,1.174A4.028,4.028,0,0,1,2.686,19.938Zm80.325-.162v-.245c.081-.245.081-5.29.081-5.29,0-4.963-.325-13.259-.325-13.427a1.393,1.393,0,0,0-.081-.568h3.58s-.081.407-.081.491c0,.162-.081,6.673-.081,6.673s.081,2.686.081,3.093c.651-.736.569-.813.894-1.14l.163-.245c1.139-1.221,2.278-2.6,3.336-3.906.081-.081.081-.162.163-.162l4.395-.163-.491.569c-4.066,4.474-5.2,5.694-5.531,6.1,5.86,6.673,7.08,8.138,7.08,8.138h-4.07l-.163-.163c-1.221-1.628-2.6-3.174-3.906-4.72,0,0-1.465-1.709-1.709-2.034,0,.491.163,6.993.163,6.993Zm17.66-.081c-2.442,0-5.452-.813-5.615-4.232v-.407c0-3.093,2.686-3.906,5.208-4.476l.491-.081,1.3-.325,1.465-.491c.813-.245,1.14-.651,1.14-1.221V8.382c-.081-1.3-1.79-1.465-2.767-1.465a11.655,11.655,0,0,0-5.208,1.227l-.491.245.081-.569c.162-2.035.245-2.522.245-2.522l.325-.081a22.955,22.955,0,0,1,5.29-.651c5.127,0,5.86,2.2,5.941,4.068.081.982.081,2.686.081,4.314v.081c0,2.034,0,4.395.081,6.1V19.7Zm2.849-7.161-1.465.325-1.139.245c-1.628.491-2.768.982-2.768,2.116l.081.081c.081,1.465,1.79,1.628,2.767,1.628,0,0,3.662.081,3.825.081,0-.162.081-4.964.081-5.045a9.887,9.887,0,0,1-1.383.567ZM69.013,19.7V19.45c.081-.245.081-5.29.081-5.29,0-4.958-.325-13.265-.325-13.423a1.381,1.381,0,0,0-.081-.569h3.576s-.081.406-.081.491c0,.163-.081,6.673-.081,6.673s.081,2.686.081,3.093c.651-.736.571-.813.9-1.139l.162-.245c1.14-1.221,2.278-2.6,3.337-3.906.081-.081.081-.162.162-.162l4.481-.088-.491.569c-4.068,4.477-5.127,5.7-5.535,6.1,5.86,6.673,6.993,8.057,6.993,8.057H78.127l-.163-.162c-1.227-1.628-2.6-3.174-3.906-4.72,0,0-1.465-1.709-1.709-2.034,0,.491.162,6.993.162,6.993Zm40.119-.081V16.931h5.046a1.562,1.562,0,0,0,1.384-.491,1.315,1.315,0,0,0,.245-.736v-.081c0-.491-.325-.813-.813-1.384a8.693,8.693,0,0,0-.894-.736l-.736-.569-.325-.245c-1.627-1.227-3.174-2.442-3.255-4.314V8.22a3.545,3.545,0,0,1,.9-2.361,5.536,5.536,0,0,1,4.151-1.384c1.14.081,2.361.163,3.5.325,0,.081.081.081.245.081l.245,3.093c0,.027-.606-.172-1.423-.368-1.634-.4-4.111-.8-4.273.613-.081.407.245.9.813,1.465a7.067,7.067,0,0,0,.9.736l1.14.813c1.628,1.221,3.174,2.522,3.255,4.476a3.313,3.313,0,0,1-.813,2.442,6.426,6.426,0,0,1-4.313,1.461Zm-59.573,0v-.491c.081-2.361.081-4.8.081-7.161,0-3.743-.081-7.65-.163-11.312L49.4.081h3.743L53.062.65c-.081,1.79-.081,3.743-.081,5.86,0,4.314.081,8.789.163,12.615v.491Zm-34.014-.082a6.7,6.7,0,0,1-5.209-2.11,7.959,7.959,0,0,1-1.87-5.458,7.628,7.628,0,0,1,1.87-5.371c.081,0,.081-.081.162-.081a7.22,7.22,0,0,1,10.254.081,7.625,7.625,0,0,1,1.872,5.371,7.956,7.956,0,0,1-1.871,5.458,6.561,6.561,0,0,1-4.915,2.123ZM12.614,8.626a5.368,5.368,0,0,0-.982,3.337,5.939,5.939,0,0,0,.982,3.336,3.628,3.628,0,0,0,2.931,1.386,3.411,3.411,0,0,0,2.93-1.384,5.03,5.03,0,0,0,.982-3.336,5.368,5.368,0,0,0-.982-3.337,3.51,3.51,0,0,0-2.93-1.39q-.108-.007-.216-.007A3.435,3.435,0,0,0,12.614,8.626ZM40.856,19.532c-2.6,0-5.615-.813-5.779-4.232-.162-3.255,2.6-4.151,5.209-4.72l.491-.081,1.3-.325,1.465-.491c.813-.407,1.227-.813,1.14-1.384-.086-1.307-1.795-1.464-2.772-1.464a13.711,13.711,0,0,0-4.72,1.058l-.813.407.245-3.011a1.088,1.088,0,0,0,.407-.081,35.948,35.948,0,0,1,5.29-.813c5.127,0,5.86,2.2,5.941,4.07.081.894.081,2.6.081,4.313v.081c0,1.872.081,6.673.081,6.673Zm2.767-6.993-1.465.325-1.14.245c-1.627.491-2.767.982-2.767,2.116.162,1.539,2.114,1.705,2.85,1.705,0,0,3.662.081,3.825.081V12.044c-.41.163-.9.326-1.305.488ZM26.532,19.532v-.407c0-4.151,0-5.371.081-5.86-1.79-2.849-3.662-5.452-5.7-8.138l-.491-.651h4.151l1.385,2.116s2.2,3.255,2.28,3.418c.736-1.058,3.906-5.535,3.906-5.535h4.23l-.325.491c-.162.162-3.987,5.127-6.022,8.22,0,.081.081,5.371.081,5.371v.982Z" transform="translate(1166.382 95.987)" fill="#fff"/>
  </g>
</svg>
