<svg xmlns="http://www.w3.org/2000/svg" width="125.811" height="24.43" viewBox="0 0 125.811 24.43">
  <g id="Group_167388" data-name="Group 167388" transform="translate(-986.259 -881.856)">
    <path id="Path_61520" data-name="Path 61520" d="M57.962,100.236H63.2S73.477,79.913,98.1,77.422a11.166,11.166,0,0,0-.821-1.613S71.922,76.79,57.962,100.236Z" transform="translate(928.297 806.047)" fill="#fff"/>
    <path id="Path_61521" data-name="Path 61521" d="M380.909,128.142c7.09.569,6.2,7.512,6.2,7.512a4.874,4.874,0,0,1-1.266,3.068c-4.031,4.2-8.161,1.344-8.161,1.344,3.213,2.7,8.435,2.48,8.435,2.48,6.959-4.677,5.807-12.823,3.46-18.029A21.029,21.029,0,0,0,380.909,128.142Z" transform="translate(638.093 761.836)" fill="#fff"/>
    <path id="Path_61522" data-name="Path 61522" d="M280,130.543s-9.423,6.3-4.39,14.321c1.5,2.395,5.855,4.3,10.323,4.263a15.838,15.838,0,0,1-4.761.789c-2.274-.063-13.226,0-13.226,0S268.393,137,280,130.543Z" transform="translate(737.697 756.366)" fill="#fff"/>
    <path id="Path_61523" data-name="Path 61523" d="M149.5,139.886H139.159s6.155-13.668,24.27-20.394C163.429,119.492,151.095,124.2,149.5,139.886Z" transform="translate(854.596 766.397)" fill="#fff"/>
    <path id="Path_61524" data-name="Path 61524" d="M636.148,79.493h-1.124v1h1.124Z" transform="translate(404.506 802.703)" fill="#fff"/>
    <path id="Path_61525" data-name="Path 61525" d="M653.411,79.493h-1.124v1h1.124Z" transform="translate(388.837 802.703)" fill="#fff"/>
    <path id="Path_61526" data-name="Path 61526" d="M958.572,79.493h-1.124v1h1.124Z" transform="translate(111.847 802.703)" fill="#fff"/>
    <path id="Path_61527" data-name="Path 61527" d="M975.835,79.493h-1.124v1h1.124Z" transform="translate(96.177 802.703)" fill="#fff"/>
    <path id="Path_61528" data-name="Path 61528" d="M1295.034,79.493h-1.124v1h1.124Z" transform="translate(-193.555 802.703)" fill="#fff"/>
    <path id="Path_61529" data-name="Path 61529" d="M1312.3,79.493h-1.123v1h1.123Z" transform="translate(-209.231 802.703)" fill="#fff"/>
    <path id="Path_61530" data-name="Path 61530" d="M696.765,79.819a.33.33,0,0,0-.025-.125.325.325,0,0,0-.07-.106.32.32,0,0,0-.228-.1h-.475a.321.321,0,0,0-.228.1.328.328,0,0,0-.095.23v8.6h1.12Z" transform="translate(349.481 802.703)" fill="#fff"/>
    <path id="Path_61531" data-name="Path 61531" d="M718.594,120.836c.011-.364-.007-.623-.007-.623v-4.678a.328.328,0,0,0-.094-.23.321.321,0,0,0-.228-.1h-.476a.32.32,0,0,0-.228.1.328.328,0,0,0-.094.23v5.17a1.038,1.038,0,0,1-.556.88,3.267,3.267,0,0,1-1.05.125v1.009C718.334,122.784,718.567,121.69,718.594,120.836Z" transform="translate(331.131 770.285)" fill="#fff"/>
    <path id="Path_61532" data-name="Path 61532" d="M1337.748,85.444V78.765a.328.328,0,0,0-.094-.23.319.319,0,0,0-.227-.1h-.476a.319.319,0,0,0-.227.1.329.329,0,0,0-.094.23v6.679a.8.8,0,0,1-.241.558.78.78,0,0,1-.559.223h-.715l-1.16-6.947-.112-.677a.322.322,0,0,0-.131-.211.319.319,0,0,0-.24-.055l-.469.08a.32.32,0,0,0-.208.133.328.328,0,0,0-.055.243l.112.676,1.129,6.757h-1.628v1.136h3.481a1.9,1.9,0,0,0,1.349-.558,1.946,1.946,0,0,0,.568-1.358Z" transform="translate(-228.447 803.759)" fill="#fff"/>
    <path id="Path_61533" data-name="Path 61533" d="M1409.771,80.505v-.687a.335.335,0,0,0-.1-.23.321.321,0,0,0-.228-.1h-.475a.319.319,0,0,0-.228.1.326.326,0,0,0-.07.106.32.32,0,0,0-.025.125v8.574h1.124V80.505Z" transform="translate(-297.703 802.703)" fill="#fff"/>
    <path id="Path_61534" data-name="Path 61534" d="M783.991,79.819a.326.326,0,0,0-.1-.23.319.319,0,0,0-.227-.1h-.47a.313.313,0,0,0-.123.025.322.322,0,0,0-.105.071.323.323,0,0,0-.094.23V86.5a.8.8,0,0,1-.241.558.781.781,0,0,1-.559.223h-1.352a.781.781,0,0,1-.563-.221.8.8,0,0,1-.243-.56V79.82a.338.338,0,0,0-.024-.125.327.327,0,0,0-.07-.106.322.322,0,0,0-.1-.071.315.315,0,0,0-.123-.025h-.476a.319.319,0,0,0-.227.1.329.329,0,0,0-.094.23V86.5a.8.8,0,0,1-.241.558.783.783,0,0,1-.56.223h-1.1a3.654,3.654,0,0,0,.288-1.523c0-2.12-.926-3.106-2.914-3.106-1.878,0-2.914,1.1-2.914,3.106a3.64,3.64,0,0,0,.283,1.523h-3.585a4.561,4.561,0,0,0,.251-1.669c-.006-2.462-1.562-2.826-2.489-2.826h-2.779a2.513,2.513,0,0,0-1.322.376V79.819a.328.328,0,0,0-.094-.23.32.32,0,0,0-.228-.1h-.476a.32.32,0,0,0-.228.1.328.328,0,0,0-.094.23v7.461h-4.539a.783.783,0,0,1-.559-.223.8.8,0,0,1-.241-.557V79.82a.328.328,0,0,0-.094-.23.323.323,0,0,0-.1-.071.318.318,0,0,0-.123-.025h-.475a.321.321,0,0,0-.228.1.328.328,0,0,0-.095.23V86.5a1.945,1.945,0,0,0,.57,1.361,1.9,1.9,0,0,0,1.353.556h6.982v.022h2.779c.21,0,.432,0,.652-.022H778a1.924,1.924,0,0,1,2.724,0h1.352a1.9,1.9,0,0,0,1.351-.558,1.945,1.945,0,0,0,.569-1.359V80.507Zm-11.516,5.937c0-1.384.535-1.97,1.791-1.97,1.188,0,1.791.3,1.791,1.97,0,.809-.229,1.358-.631,1.523h-2.238c-.474-.114-.713-.625-.713-1.523Zm-10.758-.843a1.35,1.35,0,0,1,1.322-.993h2.779c.672,0,1.36.2,1.36,1.691,0,.809-.123,1.337-.355,1.529a.8.8,0,0,1-.419.146h-4.687Z" transform="translate(296.389 802.703)" fill="#fff"/>
    <path id="Path_61535" data-name="Path 61535" d="M612.285,119.307h.008v-3.575a.327.327,0,0,0-.094-.23.32.32,0,0,0-.227-.1H611.5a.32.32,0,0,0-.227.1.327.327,0,0,0-.094.23v3.386a.8.8,0,0,1-.243.557.787.787,0,0,1-.56.224H606.6a.787.787,0,0,1-.559-.224.806.806,0,0,1-.242-.557v-2.159a.33.33,0,0,0-.024-.125.325.325,0,0,0-.07-.106.321.321,0,0,0-.228-.1h-.48a.321.321,0,0,0-.228.1.325.325,0,0,0-.07.106.329.329,0,0,0-.024.125v2.16a1.945,1.945,0,0,0,.57,1.361,1.9,1.9,0,0,0,1.354.556h3.776a1.9,1.9,0,0,0,1.286-.492,1.944,1.944,0,0,0,.629-1.236Z" transform="translate(432.057 770.106)" fill="#fff"/>
    <path id="Path_61536" data-name="Path 61536" d="M1195.405,86.694h.008V83.119a.33.33,0,0,0-.094-.231.322.322,0,0,0-.228-.1h-.475a.319.319,0,0,0-.228.1.329.329,0,0,0-.07.106.341.341,0,0,0-.024.125V86.5a.8.8,0,0,1-.241.558.78.78,0,0,1-.559.223h-2.431a5.208,5.208,0,0,0,.216-1.683c0-1.875-.775-2.826-2.3-2.826h-1.737a.558.558,0,0,0-.214.043.577.577,0,0,0-.182.123.614.614,0,0,0,.006.842.337.337,0,0,0,.118.092.333.333,0,0,0,.146.032h1.864c.622,0,1.181.129,1.181,1.69,0,1.054-.161,1.426-.295,1.552a.79.79,0,0,1-.486.13h-.615v.008h-4.423a.782.782,0,0,1-.56-.22.8.8,0,0,1-.244-.557V79.834a.33.33,0,0,0-.094-.23.323.323,0,0,0-.228-.1h-.479a.319.319,0,0,0-.227.1.326.326,0,0,0-.1.23v6.679a1.949,1.949,0,0,0,.57,1.361,1.9,1.9,0,0,0,1.353.556h4.638c.144,0,.292,0,.442-.008h4.078a1.9,1.9,0,0,0,1.286-.492A1.944,1.944,0,0,0,1195.405,86.694Z" transform="translate(-92.348 802.689)" fill="#fff"/>
    <path id="Path_61537" data-name="Path 61537" d="M1126.433,120.349a3.119,3.119,0,0,0,.651-2.384c0-1.876-.774-2.827-2.3-2.827h-1.737a.557.557,0,0,0-.4.166.614.614,0,0,0,.006.843.336.336,0,0,0,.264.124h1.864c.622,0,1.181.13,1.181,1.691,0,1.054-.16,1.426-.294,1.552s-.44.138-.886.138h-2.391v1.136h2.391A2.238,2.238,0,0,0,1126.433,120.349Z" transform="translate(-37.869 770.349)" fill="#fff"/>
    <path id="Path_61538" data-name="Path 61538" d="M773.8,228.541h-.477a.324.324,0,0,0-.322.326v9.581a.324.324,0,0,0,.322.326h.477a.324.324,0,0,0,.322-.326v-9.581A.324.324,0,0,0,773.8,228.541Z" transform="translate(279.27 667.415)" fill="#fff"/>
    <path id="Path_61539" data-name="Path 61539" d="M1313.718,228.541h-.476a.324.324,0,0,0-.321.326v9.581a.324.324,0,0,0,.321.326h.476a.324.324,0,0,0,.322-.326v-9.581A.324.324,0,0,0,1313.718,228.541Z" transform="translate(-210.811 667.415)" fill="#fff"/>
    <path id="Path_61540" data-name="Path 61540" d="M684.226,229.148h-6.55a.32.32,0,0,0-.227.1.327.327,0,0,0-.094.23v.482a.327.327,0,0,0,.094.23.32.32,0,0,0,.227.1h2.719V239a.328.328,0,0,0,.094.23.32.32,0,0,0,.227.1h.47a.32.32,0,0,0,.227-.1.327.327,0,0,0,.094-.23v-8.718h2.715a.32.32,0,0,0,.228-.1.328.328,0,0,0,.094-.23v-.481a.327.327,0,0,0-.093-.23.32.32,0,0,0-.227-.1Z" transform="translate(366.084 666.864)" fill="#fff"/>
    <path id="Path_61541" data-name="Path 61541" d="M1123.052,235.465a2.713,2.713,0,0,0,2.122-2.744c0-1.9-1.09-2.948-3.07-2.948-.58,0-1.03-.006-1.391-.011-1.08-.015-1.367-.02-1.639.251a.888.888,0,0,0-.224.683v8.859a.321.321,0,0,0,.025.125.32.32,0,0,0,.3.2h.476a.317.317,0,0,0,.123-.025.323.323,0,0,0,.1-.071.327.327,0,0,0,.07-.105.339.339,0,0,0,.024-.125v-3.88c.345,0,.852-.006,1.526-.006.134,0,.264,0,.391-.012l2.419,3.9c.216.35.346.326.524.326h.641c.177,0,.231-.146.119-.326Zm-3.081-.924v-3.649c.184,0,.442,0,.726,0,.365.005.819.012,1.407.012,1.368,0,1.948.542,1.948,1.812,0,1.5-1.389,1.812-2.555,1.812Q1120.491,234.533,1119.972,234.541Z" transform="translate(-34.656 666.312)" fill="#fff"/>
    <path id="Path_61542" data-name="Path 61542" d="M817.582,228.541h-.476a.32.32,0,0,0-.228.1.328.328,0,0,0-.094.23v4.022h-4.7v-4.022a.328.328,0,0,0-.094-.23.32.32,0,0,0-.228-.1h-.476a.32.32,0,0,0-.228.1.328.328,0,0,0-.094.23v9.581a.327.327,0,0,0,.094.23.32.32,0,0,0,.228.1h.476a.32.32,0,0,0,.228-.1.328.328,0,0,0,.094-.23v-4.426h4.7v4.426a.328.328,0,0,0,.094.23.32.32,0,0,0,.228.1h.476a.319.319,0,0,0,.228-.1.327.327,0,0,0,.094-.23v-9.58a.328.328,0,0,0-.094-.23.32.32,0,0,0-.228-.1Z" transform="translate(244.804 667.415)" fill="#fff"/>
    <path id="Path_61543" data-name="Path 61543" d="M1007.27,229.849c-.575,0-1.025-.012-1.386-.022-.915-.023-1.3-.033-1.6.267a.844.844,0,0,0-.24.472.33.33,0,0,0-.035.146v8.9a.333.333,0,0,0,.094.23.331.331,0,0,0,.1.071.324.324,0,0,0,.124.025h.236c.006,0,.341.005.835.005.523,0,1.228-.006,1.913-.029,2.239-.073,3.373-1.769,3.373-5.032C1010.691,232.446,1010.427,229.849,1007.27,229.849Zm.009,8.929c-.8.028-1.627.03-2.149.028v-7.725h.009v-.125c.172-.006.438,0,.719.009.367.009.823.021,1.414.021,1.557,0,2.3.583,2.3,3.9,0,3.384-1.225,3.86-2.29,3.9Z" transform="translate(69.583 666.257)" fill="#fff"/>
    <path id="Path_61544" data-name="Path 61544" d="M915.355,228.743a1.823,1.823,0,0,0-.711-.355,6.407,6.407,0,0,0-1.655-.131,7.19,7.19,0,0,0-1.656.131,1.961,1.961,0,0,0-.858.413,3.428,3.428,0,0,0-.755,2.458.333.333,0,0,0-.009.073v1.961a.35.35,0,0,0-.012.082v.482a.35.35,0,0,0,.012.082v4.238a.329.329,0,0,0,.094.23.321.321,0,0,0,.227.1h.476a.318.318,0,0,0,.123-.025.325.325,0,0,0,.174-.176.329.329,0,0,0,.024-.125v-4h4.185l.042,0v4.013a.328.328,0,0,0,.094.23.32.32,0,0,0,.228.1h.477a.32.32,0,0,0,.227-.1.327.327,0,0,0,.094-.23v-6.859a.306.306,0,0,0,0-.047A3.335,3.335,0,0,0,915.355,228.743Zm-.335,4.3h-4.185v-1.718h0s-.14-1.8,1.029-1.9c.432-.036,1.922-.034,2.166,0,1.161.162,1.028,1.9,1.028,1.9v1.722a.264.264,0,0,0-.042,0Z" transform="translate(155.187 667.673)" fill="#fff"/>
    <path id="Path_61545" data-name="Path 61545" d="M1218.405,228.743a1.825,1.825,0,0,0-.711-.355,6.394,6.394,0,0,0-1.656-.131,7.185,7.185,0,0,0-1.655.131,1.959,1.959,0,0,0-.858.413,3.422,3.422,0,0,0-.755,2.458.385.385,0,0,0-.009.073v1.961a.353.353,0,0,0-.011.082v.482a.352.352,0,0,0,.011.082v4.238a.321.321,0,0,0,.025.125.326.326,0,0,0,.174.176.314.314,0,0,0,.123.025h.476a.315.315,0,0,0,.123-.025.319.319,0,0,0,.174-.176.319.319,0,0,0,.025-.125v-4h4.185l.042,0v4.013a.329.329,0,0,0,.094.23.319.319,0,0,0,.227.1h.48a.319.319,0,0,0,.227-.1.325.325,0,0,0,.094-.23v-6.859a.4.4,0,0,0,0-.047A3.356,3.356,0,0,0,1218.405,228.743Zm-.335,4.3h-4.185v-1.718h0s-.139-1.8,1.028-1.9c.432-.036,1.922-.034,2.166,0,1.161.162,1.028,1.9,1.028,1.9v1.722A.264.264,0,0,0,1218.07,233.048Z" transform="translate(-119.888 667.673)" fill="#fff"/>
    <path id="Path_61546" data-name="Path 61546" d="M610.671,229h-1.163c-.235-.009-.508-.014-.824-.014a11.064,11.064,0,0,0-1.656.1,1.507,1.507,0,0,0-.818.373,3.226,3.226,0,0,0-.759,2.27v4.76a3.2,3.2,0,0,0,.759,2.24,1.507,1.507,0,0,0,.818.373,11.057,11.057,0,0,0,1.656.1c.316,0,.589-.005.824-.014h1.163a.32.32,0,0,0,.227-.1.326.326,0,0,0,.094-.23v-.481a.326.326,0,0,0-.094-.23.32.32,0,0,0-.227-.1h-2.2c-.385-.007-.745-.02-.915-.034-.864-.073-.963-.989-.982-1.507,0-.134-.006-.243-.006-.291v-1.779h4.1a.32.32,0,0,0,.227-.1.327.327,0,0,0,.094-.23v-.481a.327.327,0,0,0-.094-.23.32.32,0,0,0-.227-.1h-4.1v-1.354c0-.047,0-.157.006-.291.019-.518.116-1.434.982-1.507.17-.014.53-.026.915-.034h2.2a.32.32,0,0,0,.227-.1.327.327,0,0,0,.094-.23v-.481a.329.329,0,0,0-.094-.231.322.322,0,0,0-.1-.071.318.318,0,0,0-.123-.025Z" transform="translate(431.349 667.009)" fill="#fff"/>
    <path id="Path_61547" data-name="Path 61547" d="M1365.629,237.662h-2.2c-.384-.007-.745-.02-.915-.034-.863-.073-.963-.989-.981-1.507,0-.112-.006-.208-.006-.264v-6.99a.329.329,0,0,0-.094-.23.321.321,0,0,0-.228-.1h-.476a.319.319,0,0,0-.227.1.326.326,0,0,0-.1.23v7.339a.35.35,0,0,0,.016.093,2.881,2.881,0,0,0,.743,2.034,1.743,1.743,0,0,0,.819.373,11.063,11.063,0,0,0,1.655.1c.316,0,.59-.005.824-.014h1.164a.32.32,0,0,0,.227-.1.33.33,0,0,0,.094-.23v-.481a.32.32,0,0,0-.025-.125.322.322,0,0,0-.175-.176.316.316,0,0,0-.124-.024Z" transform="translate(-253.917 667.415)" fill="#fff"/>
  </g>
</svg>
