<svg xmlns="http://www.w3.org/2000/svg" width="114.854" height="32.649" viewBox="0 0 114.854 32.649">
  <g id="Group_167335" data-name="Group 167335" transform="translate(-638 -90)">
    <path id="Path_41192" data-name="Path 41192" d="M-714.626,1218.881c-.616-.1-1.236-.166-1.846-.292a10.094,10.094,0,0,1-4.2-1.836,7.166,7.166,0,0,1-2.733-4.6,9.183,9.183,0,0,1,.658-5.469,7.867,7.867,0,0,1,4.246-4.144,10.468,10.468,0,0,1,3.485-.817,22.212,22.212,0,0,1,2.356-.052,17.13,17.13,0,0,1,6.465,1.5.991.991,0,0,1,.638.608.992.992,0,0,1-.1.876c-.155.317-.306.639-.475.946a.938.938,0,0,1-.6.549.937.937,0,0,1-.8-.121,11.886,11.886,0,0,0-4.234-1.257,11.645,11.645,0,0,0-3.726.128,5.2,5.2,0,0,0-4.208,4.474,5.815,5.815,0,0,0,.78,4.066,5.481,5.481,0,0,0,3.281,2.323,10.012,10.012,0,0,0,3.657.255,16.022,16.022,0,0,0,3.462-.676c.152-.047.3-.107.458-.165.009-.11.022-.2.023-.286v-2.21a.67.67,0,0,0-.188-.579.67.67,0,0,0-.579-.188h-3.753a.9.9,0,0,1-.726-.207.894.894,0,0,1-.31-.688,3.271,3.271,0,0,1,.046-.96.8.8,0,0,1,.855-.661h6.9a.937.937,0,0,1,.714.276.938.938,0,0,1,.271.716v5.625a1.406,1.406,0,0,1-.63,1.21,6.615,6.615,0,0,1-1.842.826,16.815,16.815,0,0,1-3.671.707c-.32.027-.639.066-.959.1Z" transform="translate(1361.565 -1096.231)" fill="#fff"/>
    <path id="Path_41194" data-name="Path 41194" d="M328.666,1211.945c-.208.376-.421.75-.625,1.127q-2.556,4.708-5.113,9.412a1.023,1.023,0,0,1-.358.384c-.274.159-.562.033-.75-.3-.271-.484-.529-.975-.792-1.464l-4.886-9.089a.257.257,0,0,0-.128-.128c0,.115,0,.229,0,.344,0,1.736,0,3.472-.014,5.207-.008,1.7-.033,3.39-.028,5.084a.767.767,0,0,1-.826.832c-.524,0-1.05.012-1.574,0a.787.787,0,0,1-.855-.878v-14.895a.883.883,0,0,1,.957-.965h2.361a1.406,1.406,0,0,1,1.331.781q1.465,2.7,2.94,5.4.832,1.534,1.662,3.057a2.356,2.356,0,0,0,.171.285.344.344,0,0,0,.587.027,1.621,1.621,0,0,0,.182-.278c1.551-2.761,3.113-5.517,4.643-8.29a1.68,1.68,0,0,1,1.681-.984c.685.029,1.373.021,2.058,0a.924.924,0,0,1,.971.982c-.015,4.944-.009,9.889-.009,14.828,0,.648-.27.925-.913.931h-1.7a.781.781,0,0,1-.887-.895v-6.569c0-1.25-.026-2.5-.04-3.752,0-.066-.008-.128-.011-.2Z" transform="translate(388.031 -1100.886)" fill="#fff"/>
    <path id="Path_41195" data-name="Path 41195" d="M884.526,1212.148a3.264,3.264,0,0,0-.128.407,1.875,1.875,0,0,0-.009.362q0,4.8,0,9.6c0,.639-.244.895-.895.895h-1.635a.767.767,0,0,1-.877-.871v-14.987a.767.767,0,0,1,.869-.879c.625-.01,1.251-.014,1.876,0a1.833,1.833,0,0,1,1.3.556q1.469,1.506,2.929,3.022c.63.653,1.255,1.313,1.885,1.967q2.362,2.453,4.73,4.9a6.807,6.807,0,0,0,.528.439,2.724,2.724,0,0,0,.147-.384,1.777,1.777,0,0,0,.008-.332q0-4.586,0-9.173c0-.7.29-.993.988-1H897.7a.853.853,0,0,1,.933.826,3.551,3.551,0,0,1,.028.453q0,7.085,0,14.168a4.038,4.038,0,0,1-.034.512.784.784,0,0,1-.734.759q-.936.03-1.871-.034a1.487,1.487,0,0,1-.977-.5q-2.1-2.164-4.181-4.337c-.56-.582-1.115-1.168-1.674-1.75q-2.08-2.158-4.164-4.313c-.115-.119-.256-.217-.383-.326Z" transform="translate(-145.808 -1100.925)" fill="#fff"/>
    <path id="Path_41196" data-name="Path 41196" d="M-27.8,1216.6v5.775c0,.694-.3,1-.992,1h-1.7c-.688,0-.979-.293-.979-.967,0-4.914.009-9.829-.01-14.744a.969.969,0,0,1,.284-.76.969.969,0,0,1,.762-.278c2.916.018,5.833,0,8.749.018a12.164,12.164,0,0,1,3.5.417,4.625,4.625,0,0,1,2.851,2.1,4.3,4.3,0,0,1,.522,1.725,5.625,5.625,0,0,1-.271,2.592,3.771,3.771,0,0,1-2.242,2.16c-.391.162-.786.313-1.184.46-.518.192-.624.495-.3.954q1.776,2.544,3.561,5.081c.1.14.2.28.3.422a.5.5,0,0,1,.1.587.536.536,0,0,1-.523.235h-1c-.4,0-.809-.022-1.211,0a1.564,1.564,0,0,1-1.459-.747q-1.144-1.619-2.3-3.233c-.473-.666-.947-1.332-1.416-2a1.806,1.806,0,0,0-1.574-.8h-3.088Zm3.492-7.146H-27a.745.745,0,0,0-.568.21.744.744,0,0,0-.224.563q-.015,1.534,0,3.058a.753.753,0,0,0,.624.752,1.945,1.945,0,0,0,.449.044c1.724-.015,3.451-.014,5.175-.067a5.992,5.992,0,0,0,1.6-.289,1.917,1.917,0,0,0,1.456-2.128,1.831,1.831,0,0,0-1.072-1.662,5.02,5.02,0,0,0-2.228-.472c-.842-.027-1.68-.01-2.517-.01Z" transform="translate(711.395 -1100.891)" fill="#fff"/>
    <path id="Path_41197" data-name="Path 41197" d="M-362.166,1223.649h-1.06a1.362,1.362,0,0,1-1.344-.8c-.179-.362-.392-.707-.56-1.073a.8.8,0,0,0-.822-.491h-7.841a3.117,3.117,0,0,0-.394.011.714.714,0,0,0-.616.422c-.188.413-.4.813-.6,1.222a1.172,1.172,0,0,1-1.083.7c-.594.02-1.19.006-1.79,0a.722.722,0,0,1-.179-.026.439.439,0,0,1-.355-.234.438.438,0,0,1,.011-.425c.128-.317.285-.624.433-.933q2.228-4.653,4.457-9.306,1.176-2.457,2.347-4.915a1.338,1.338,0,0,1,1.032-.846,5.588,5.588,0,0,1,1.406,0,1.385,1.385,0,0,1,1.041.84q1.682,3.323,3.377,6.634,2.1,4.125,4.207,8.249c.339.665.155.964-.588.965C-361.434,1223.65-361.8,1223.649-362.166,1223.649Zm-7.939-4.812h2.087c.231,0,.464.008.7-.006a.422.422,0,0,0,.37-.175.422.422,0,0,0,.048-.407,2.065,2.065,0,0,0-.128-.308q-1.305-2.879-2.613-5.752a2.151,2.151,0,0,0-.137-.27c-.161-.255-.345-.255-.511,0a1.912,1.912,0,0,0-.128.241q-.29.614-.579,1.232-1.081,2.316-2.16,4.633c-.256.546-.086.809.511.81.855,0,1.7,0,2.55,0Z" transform="translate(1037.717 -1101.167)" fill="#fff"/>
    <path id="Path_41198" data-name="Path 41198" d="M924.193,958.364h-5.507a1.094,1.094,0,0,1-.895-1.605c.341-.652.723-1.278,1.092-1.918l4.218-7.309a2.52,2.52,0,0,1,.289-.423,1.061,1.061,0,0,1,1.729.138c.474.767.919,1.565,1.374,2.351q1.991,3.444,3.979,6.889a1.312,1.312,0,0,1,.266.936,1.134,1.134,0,0,1-1.191.947h-4.176Z" transform="translate(-180.275 -856.726)" fill="#fff"/>
    <path id="Path_41199" data-name="Path 41199" d="M730.389,1215.077v7.143c0,.936-.248,1.182-1.186,1.182-.524,0-1.049.01-1.574,0a1.518,1.518,0,0,1-.552-.121.639.639,0,0,1-.4-.626V1207.52a.787.787,0,0,1,.8-.846c.706-.022,1.406-.017,2.118,0a.75.75,0,0,1,.75.694,4.31,4.31,0,0,1,.038.573Q730.392,1211.5,730.389,1215.077Z" transform="translate(-0.858 -1100.919)" fill="#fff"/>
  </g>
</svg>
