<svg xmlns="http://www.w3.org/2000/svg" width="119.502" height="24.834" viewBox="0 0 119.502 24.834">
  <g id="Group_167347" data-name="Group 167347" transform="translate(-635 -290)">
    <g id="AjK009.tif" transform="translate(635 290)">
      <g id="Group_4128" data-name="Group 4128">
        <path id="Path_9026" data-name="Path 9026" d="M1667.38-307.791v-24.834h24.84v24.834Zm8.474-19.674a1.27,1.27,0,0,0-.242-.015,11.06,11.06,0,0,0-4.17,2.147,6.846,6.846,0,0,0-2.29,3.255,5.78,5.78,0,0,0,1.589,5.987,11.409,11.409,0,0,0,6.589,3.2,1.319,1.319,0,0,0,.314-.039c-3.226-1.168-5.306-3.272-5.726-6.677s1.057-5.956,3.94-7.86Zm5.828,14.52a.891.891,0,0,0,.186.094.941.941,0,0,0,.243,0,11.944,11.944,0,0,0,6.309-2.826,6.136,6.136,0,0,0,2.241-4.419,4.129,4.129,0,0,0-.055-.548h-8.5a1.571,1.571,0,0,0,.425,1.418,2.777,2.777,0,0,0,2.033.8c.745.047,1.494.034,2.241.049.142,0,.283.019.548.036a9.651,9.651,0,0,1-.5,1.227,9.965,9.965,0,0,1-5.171,4.17Zm8.385-9.77c-.372-1.873-5-5.171-6.567-4.75a2.08,2.08,0,0,0,.219.183,7.984,7.984,0,0,1,3.437,4.253.6.6,0,0,0,.449.3c.554.038,1.112.016,1.67.016Z" transform="translate(-1667.38 332.625)" fill="#fff"/>
        <path id="Path_9027" data-name="Path 9027" d="M2074.815-288.36a11.834,11.834,0,0,1-5.433-1.062,6.885,6.885,0,0,1-4.09-4.487,6.857,6.857,0,0,1,2.538-7.508,10.93,10.93,0,0,1,7.4-2.121,10.787,10.787,0,0,1,6,2.068,6.982,6.982,0,0,1,2.719,4.721,6.982,6.982,0,0,1-1.5,5.237,8.446,8.446,0,0,1-4.537,2.731c-1.011.243-2.055.35-3.084.517Zm.582-13.329c-3.189.012-4.923,1.047-5.809,2.956a6.6,6.6,0,0,0-.591,3.216,5.52,5.52,0,0,0,2.7,4.611,5.521,5.521,0,0,0,5.342.164,4.987,4.987,0,0,0,2.7-3.17,6.539,6.539,0,0,0-.284-4.928,4.686,4.686,0,0,0-4.059-2.85Z" transform="translate(-2000.144 308.297)" fill="#fff"/>
        <path id="Path_9028" data-name="Path 9028" d="M1872.889-299.211a3.374,3.374,0,0,1-.237-.271,5.279,5.279,0,0,0-3.857-2.326,6.559,6.559,0,0,0-3.765.388,5.01,5.01,0,0,0-2.89,3.579,6.89,6.89,0,0,0,.364,4.586,4.615,4.615,0,0,0,2.795,2.527,7.492,7.492,0,0,0,4.847.02c.14-.046.271-.119.472-.2v-4.932h3.416v6.055c-.64.214-1.281.471-1.943.641a17.149,17.149,0,0,1-6.588.475,8.793,8.793,0,0,1-6.311-3.562,6.605,6.605,0,0,1-.724-6.34,7.425,7.425,0,0,1,5.072-4.6,12.233,12.233,0,0,1,10.071,1.081c.151.086.288.2.5.343Z" transform="translate(-1826.879 308.505)" fill="#fff"/>
        <path id="Path_9029" data-name="Path 9029" d="M1990.409-289.308l-.877,2.018H1978.9v-14.586a4.385,4.385,0,0,1,.468-.049q4.242,0,8.487-.01a.644.644,0,0,1,.684.436c.223.5.489.986.791,1.589a47.515,47.515,0,0,0-6.735-.24v4.512a42.581,42.581,0,0,0,5.23-.1v1.988h-5.266v4.648a49.793,49.793,0,0,0,7.85-.212Z" transform="translate(-1928.064 306.943)" fill="#fff"/>
        <path id="Path_9030" data-name="Path 9030" d="M2320.639-301.854v1.713h-5.829v12.883h-3.721v-12.856h-5.864c.2-.627.35-1.143.553-1.636.039-.1.307-.137.468-.137q4.486-.012,8.97-.006h4.894C2320.27-301.887,2320.424-301.868,2320.639-301.854Z" transform="translate(-2201.137 306.904)" fill="#fff"/>
        <path id="Path_9031" data-name="Path 9031" d="M2261.37-287.049v-14.578h3.663v14.578Z" transform="translate(-2164.439 306.685)" fill="#fff"/>
        <path id="Path_9032" data-name="Path 9032" d="M2193.512-301.656h3.614c.013.164.036.307.036.454,0,2.487.013,4.974,0,7.464a6.442,6.442,0,0,1-1.392,4.294,5.016,5.016,0,0,1-1.5,1.227,30.3,30.3,0,0,1-2.937,1.18,3.213,3.213,0,0,1-.637.1v-1.27a12.7,12.7,0,0,0,1.186-.767,4.261,4.261,0,0,0,1.57-3.365c.058-2.935.045-5.869.059-8.8C2193.512-301.292,2193.512-301.456,2193.512-301.656Z" transform="translate(-2105.3 306.71)" fill="#fff"/>
      </g>
    </g>
  </g>
</svg>
