<svg xmlns="http://www.w3.org/2000/svg" width="105.411" height="31.583" viewBox="0 0 105.411 31.583">
  <g id="Group_167352" data-name="Group 167352" transform="translate(-465 -384)">
    <g id="Group_4169" data-name="Group 4169" transform="translate(465 384)">
      <path id="Path_9250" data-name="Path 9250" d="M2933.342,453.829a13.692,13.692,0,0,1,7.278,1.706,11.134,11.134,0,0,1,5.859,7.591,12.943,12.943,0,0,1-2.376,10.891,12.179,12.179,0,0,1-6.564,4.147,15.664,15.664,0,0,1-6.108.608,14.232,14.232,0,0,1-4.319-1.029,11.889,11.889,0,0,1-5.649-5.551,11.7,11.7,0,0,1-1.14-7.464c.846-5.225,3.907-8.591,8.859-10.29a12.55,12.55,0,0,1,4.16-.608Zm-8.888,10.361a17.013,17.013,0,0,0,1.366,7.425c1.447,3.054,3.68,5.132,7.136,5.634a7.531,7.531,0,0,0,6.717-2.053,9.269,9.269,0,0,0,2.517-4.7,14.253,14.253,0,0,0,.13-4.854,13.868,13.868,0,0,0-1.845-5.658,9.187,9.187,0,0,0-4.227-3.87,9.538,9.538,0,0,0-3.841-.692,7.1,7.1,0,0,0-5.7,2.759,9.509,9.509,0,0,0-2.257,6Z" transform="translate(-2920.14 -453.815)" fill="#fff"/>
      <path id="Path_9251" data-name="Path 9251" d="M2929.923,471.99a12.584,12.584,0,0,1,3.939.855c1.589.554,3.154,1.176,4.747,1.718a8.871,8.871,0,0,0,3.2.562,4.629,4.629,0,0,0,3.032-1.2,2.044,2.044,0,0,1,.528-.336c.227-.1.357.024.307.249a1.784,1.784,0,0,1-.257.566,7.232,7.232,0,0,1-5.037,3.189,10.126,10.126,0,0,1-6.831-1.426c-1.077-.608-2.094-1.327-3.139-1.994-.169-.107-.34-.2-.506-.314a2.052,2.052,0,0,0-2.253-.122,2.733,2.733,0,0,1-.455.186.468.468,0,0,1-.631-.213.52.52,0,0,1,.108-.7,3.8,3.8,0,0,1,1.736-.806C2928.9,472.1,2929.412,472.059,2929.923,471.99Z" transform="translate(-2917.458 -446.12)" fill="#fff"/>
    </g>
    <g id="Group_4172" data-name="Group 4172" transform="translate(498.908 386.894)">
      <g id="Group_4170" data-name="Group 4170" transform="translate(14.837 18.622)">
        <path id="Path_9252" data-name="Path 9252" d="M2970.544,476.018a3.543,3.543,0,1,1,3.7-3.584,3.584,3.584,0,0,1-3.7,3.584Zm.27-.386a2.106,2.106,0,0,0,1.748-.8,3.56,3.56,0,0,0-.762-5.1,2.442,2.442,0,0,0-3.7,1.139,3.847,3.847,0,0,0-.229,2.035,3.085,3.085,0,0,0,2.947,2.729Z" transform="translate(-2949.096 -468.93)" fill="#fff"/>
        <path id="Path_9253" data-name="Path 9253" d="M2962.956,472.654c0,.663-.009,1.276,0,1.889a1.006,1.006,0,0,0,.733,1.073c.059.018.1.081.235.193h-2.709a1.982,1.982,0,0,1,.324-.224.868.868,0,0,0,.573-.73,3.3,3.3,0,0,0,.051-.544q.005-1.9,0-3.8c0-.561-.083-1.082-.752-1.247a.125.125,0,0,1-.073-.074.4.4,0,0,1,.01-.138c.74,0,1.479-.007,2.218,0a12.863,12.863,0,0,1,1.676.069,1.38,1.38,0,0,1,1.323,1.225,1.783,1.783,0,0,1-.986,1.913c-.21.1-.431.177-.706.289.227.461.422.927.675,1.358a6.79,6.79,0,0,0,.855,1.207,10.923,10.923,0,0,0,1.207.964,2.193,2.193,0,0,1-2.057-.964,16.568,16.568,0,0,1-1.291-2.132c-.156-.3-.308-.4-.615-.37C2963.438,472.64,2963.216,472.64,2962.956,472.654Zm.015-.248a18.836,18.836,0,0,0,1.889-.254,1.157,1.157,0,0,0,.909-1.138,1.357,1.357,0,0,0-.651-1.4,3.029,3.029,0,0,0-2.149-.185Z" transform="translate(-2951.483 -468.883)" fill="#fff"/>
        <path id="Path_9254" data-name="Path 9254" d="M2961.854,472.976c-.289.216-.611.346-.75.579a2.043,2.043,0,0,0-.174.9.69.69,0,0,0,.522.754c-1.35.134-2.517,1.016-3.954.787a3.551,3.551,0,0,1-3.012-2.433,3.773,3.773,0,0,1,4.226-4.6c.747.1,1.489.224,2.245.337l-.152,1.668a1.4,1.4,0,0,1-.193-.279,1.58,1.58,0,0,0-1.593-1.432,3.117,3.117,0,0,0-3.5,1.939,3.357,3.357,0,0,0,1.045,4,3.182,3.182,0,0,0,2.893.289,1.421,1.421,0,0,0,.788-1.785c-.1-.212-.376-.344-.579-.5a1.662,1.662,0,0,0-.313-.151l.038-.088Z" transform="translate(-2954.386 -468.927)" fill="#fff"/>
        <path id="Path_9255" data-name="Path 9255" d="M2973.18,469.107h2.745c-.018.066-.021.108-.031.111a1.086,1.086,0,0,0-.887,1.2,28.66,28.66,0,0,0,.048,2.933A2.306,2.306,0,0,0,2978,475.4a1.569,1.569,0,0,0,1.106-.861,4.552,4.552,0,0,0,.4-1.372,17.015,17.015,0,0,0,.058-2.423c-.064-1.357-.289-1.314-1.27-1.543.087-.074.141-.159.193-.159.8-.009,1.608-.006,2.523-.006-.115.129-.154.218-.211.232a1.054,1.054,0,0,0-.841,1.086c-.044.885.007,1.778-.075,2.658a6.049,6.049,0,0,1-.442,1.684,1.969,1.969,0,0,1-1.371,1.136,3.608,3.608,0,0,1-2.122-.024,2.508,2.508,0,0,1-1.666-2.422c-.078-.868-.05-1.745-.069-2.619,0-.182-.006-.365-.016-.547-.042-.715-.163-.844-.876-.953a1.316,1.316,0,0,1-.143-.04Z" transform="translate(-2946.417 -468.887)" fill="#fff"/>
        <path id="Path_9256" data-name="Path 9256" d="M2982.019,472.136c.474.053.88.131,1.287.134a1.008,1.008,0,0,0,1.008-.822,1.51,1.51,0,0,0-1.639-2.093c-.271.007-.544.048-.868.077v4.828c0,.648.048,1.254.853,1.4.02,0,.029.066.063.15h-2.6c.078-.091.116-.18.178-.2a1.013,1.013,0,0,0,.708-1.061c.011-.221.006-.443.006-.664v-3.407c0-.542-.1-1.022-.715-1.2-.05-.014-.078-.105-.117-.159a.968.968,0,0,1,.27-.086c.82-.013,1.64-.024,2.461-.018a5.308,5.308,0,0,1,1.011.075,1.573,1.573,0,0,1,1.4,1.736,1.9,1.9,0,0,1-1.645,1.808,5.611,5.611,0,0,1-1.372-.2C2982.193,472.42,2982.116,472.242,2982.019,472.136Z" transform="translate(-2943.479 -468.893)" fill="#fff"/>
      </g>
      <g id="Group_4171" data-name="Group 4171">
        <path id="Path_9257" data-name="Path 9257" d="M2962.339,467.949l-.206-.547.827-.3a5.283,5.283,0,0,1-3.532-4.1,5.571,5.571,0,0,1,5.323-6.558,6.364,6.364,0,0,1,4.586,1.543c2.443,2.122,2.1,7.449-1.846,8.811a25.6,25.6,0,0,1-2.757.64c.363.155.834.339,1.293.553.734.343,1.452.723,2.191,1.061a2.858,2.858,0,0,0,2.5.1c.375.276.261.493-.036.7a3.714,3.714,0,0,1-3.531.475,16.163,16.163,0,0,1-2.445-1.339c-.3-.176-.579-.407-.868-.607C2963.39,468.057,2962.995,467.56,2962.339,467.949Zm2.41-10.788a3.242,3.242,0,0,0-2.687,1.317c-1.413,1.7-1.017,5.638.891,7.275a3.5,3.5,0,0,0,5.614-1.18,5.945,5.945,0,0,0-.491-5.527,3.629,3.629,0,0,0-3.325-1.884Z" transform="translate(-2937.452 -455.6)" fill="#fff"/>
        <path id="Path_9258" data-name="Path 9258" d="M2990.4,465.957h-3.614c.14-.2.211-.419.344-.467a.95.95,0,0,0,.675-.918c.011-1.04.009-2.08-.06-3.117a1.272,1.272,0,0,0-1-1.231,1.689,1.689,0,0,0-1.684.528.744.744,0,0,0-.148.482c-.006,1.025.006,2.048.02,3.072a1.137,1.137,0,0,0,.742,1.166c.132.053.2.266.35.482h-3.672c.136-.193.207-.4.335-.443a.949.949,0,0,0,.726-.934c.012-1.094.008-2.188-.03-3.279-.017-.474-.169-.9-.761-1-.1-.015-.161-.254-.2-.314l2.5-.894v.958c1.447-1,2.853-1.606,4.191.108.386-.241.795-.511,1.217-.757a2.478,2.478,0,0,1,1.8-.233,2.094,2.094,0,0,1,1.535,2.259c.018.918.012,1.832,0,2.753a1.2,1.2,0,0,0,.771,1.306c.125.048.18.281.3.475h-3.614c.135-.193.2-.419.334-.466a.993.993,0,0,0,.721-1c.022-.9.054-1.8-.008-2.7a1.53,1.53,0,0,0-2.508-1.29.837.837,0,0,0-.442.86c.055.915.05,1.832.05,2.752a1.241,1.241,0,0,0,.835,1.372C2990.239,465.527,2990.287,465.762,2990.4,465.957Z" transform="translate(-2927.69 -454.485)" fill="#fff"/>
        <path id="Path_9259" data-name="Path 9259" d="M2955.619,467.173h-4.629v-.45c.193-.034.361-.053.528-.1a.8.8,0,0,0,.654-1.112c-.224-.724-.482-1.437-.762-2.143a.516.516,0,0,0-.362-.289c-1.061-.029-2.115-.015-3.172-.031a.52.52,0,0,0-.579.409c-.2.6-.443,1.19-.644,1.791-.278.834,0,1.276.868,1.418.1.015.205.024.338.04v.46H2944l-.04-.386c.055-.047.078-.083.1-.087a2.247,2.247,0,0,0,1.6-1.491q1.189-2.569,2.338-5.156c.29-.643.545-1.3.8-1.959.119-.308.193-.608-.258-.771-.115-.041-.145-.323-.215-.493l2.713-.607a3.664,3.664,0,0,0,.358,2.383q1.282,3.3,2.554,6.612a2.076,2.076,0,0,0,1.377,1.486C2955.436,466.737,2955.493,466.968,2955.619,467.173Zm-7.8-4.964h3.168l-1.493-4.079Z" transform="translate(-2943.96 -455.692)" fill="#fff"/>
        <path id="Path_9260" data-name="Path 9260" d="M2974.623,464.963c.193.306,0,.667-.6.987a1.228,1.228,0,0,1-1.947-.7c-.1.066-.2.12-.3.193a3.426,3.426,0,0,1-2.314.73,1.392,1.392,0,0,1-1.247-2.206,2.584,2.584,0,0,1,1-.978,20.8,20.8,0,0,1,2.6-.971c.26-.086.41-.149.385-.44a2.6,2.6,0,0,0-.072-.833c-.131-.276-.385-.652-.628-.682a5.125,5.125,0,0,0-1.65.114c-.368.077-.5.386-.36.793.051.148-.058.352-.1.528h-.174l-.71-.868a3.843,3.843,0,0,1,3.874-1.447,1.588,1.588,0,0,1,1.231,1.543c.04.911-.032,1.832-.06,2.744a4.732,4.732,0,0,0-.03.842,1.371,1.371,0,0,0,.31.778C2973.958,465.188,2974.3,465.022,2974.623,464.963Zm-2.368-2.367a3.515,3.515,0,0,0-2.3.868,1.049,1.049,0,0,0,.3,1.77,1.432,1.432,0,0,0,1.806-1.046A12.924,12.924,0,0,0,2972.255,462.6Z" transform="translate(-2933.796 -454.486)" fill="#fff"/>
        <path id="Path_9261" data-name="Path 9261" d="M2981.3,461.77a7.53,7.53,0,0,0-.056-.992.893.893,0,0,0-.954-.813,4.985,4.985,0,0,0-1.3.141.595.595,0,0,0-.442.86c.051.138-.053.335-.088.5l-.159.012-.711-.861a3.857,3.857,0,0,1,3.834-1.431,1.608,1.608,0,0,1,1.268,1.623c.016,1.074-.07,2.15-.112,3.223a1.276,1.276,0,0,0-.01.368c.07.242.116.589.289.675.193.1.5-.039.844-.086,0,.05.074.242.007.338a1.774,1.774,0,0,1-1.624.806c-.6-.023-.727-.467-.906-.951-.143.1-.269.176-.385.267a3.405,3.405,0,0,1-2.649.654,1.337,1.337,0,0,1-.894-2.09,2.8,2.8,0,0,1,1.079-1.046C2979.247,462.518,2980.231,462.192,2981.3,461.77Zm-.036.868a3.189,3.189,0,0,0-2.249.795,1.113,1.113,0,0,0,.2,1.79,1.536,1.536,0,0,0,1.809-.7,3.181,3.181,0,0,0,.247-1.881Z" transform="translate(-2929.951 -454.479)" fill="#fff"/>
        <path id="Path_9262" data-name="Path 9262" d="M2952.57,456.906l2.448-1.055v9.691c0,.844.126,1.007.9,1.334.112.047.158.254.261.431h-3.429c-.069-.206-.074-.329.224-.51a1.231,1.231,0,0,0,.543-.868c.019-2.6-.02-5.215-.052-7.823a.884.884,0,0,0-.622-.888C2952.7,457.166,2952.628,456.969,2952.57,456.906Z" transform="translate(-2940.311 -455.851)" fill="#fff"/>
        <path id="Path_9263" data-name="Path 9263" d="M2977.851,465.113a1.221,1.221,0,0,1-.009.466,2.241,2.241,0,0,1-2.7,1.22,1.639,1.639,0,0,1-1.114-1.639q-.074-1.877-.026-3.761c.016-.551-.162-.743-.685-.659a.358.358,0,0,1-.209-.006,3.946,3.946,0,0,1-.379-.251c.09-.125.154-.322.274-.364a2.912,2.912,0,0,0,1.911-2.335c.067-.316.148-.554.62-.361-.031.634-.061,1.3-.1,1.958s-.03.684.636.685h1.405v.657c-.512,0-1.021.027-1.525-.009-.444-.033-.532.161-.525.555.02,1.076,0,2.154.009,3.231,0,.5.013,1.053.579,1.254a1.3,1.3,0,0,0,1.475-.448l.172-.193Z" transform="translate(-2931.771 -455.212)" fill="#fff"/>
        <path id="Path_9264" data-name="Path 9264" d="M2995.248,465.947h-3.568c.086-.174.125-.418.237-.455a.952.952,0,0,0,.655-.989c.008-1.146-.031-2.29-.066-3.435a.691.691,0,0,0-.553-.741c-.1-.024-.18-.213-.208-.341-.011-.048.15-.193.237-.193a2.667,2.667,0,0,0,1.7-.631c.1-.08.284-.05.407-.069,0,1.7.006,3.339,0,4.974,0,.685.09,1.277.919,1.435C2995.094,465.518,2995.152,465.763,2995.248,465.947Z" transform="translate(-2923.745 -454.479)" fill="#fff"/>
        <path id="Path_9265" data-name="Path 9265" d="M2959.349,461.1v1.372h-1.294c-.687,0-1.374-.017-2.059.006-.353.013-.473-.117-.448-.457.02-.289,0-.591,0-.921Z" transform="translate(-2939.051 -453.627)" fill="#fff"/>
        <path id="Path_9266" data-name="Path 9266" d="M2993.342,456.509c.6,0,.805.159.813.64a1.223,1.223,0,0,1-1.294,1.174c-.561.009-.807-.215-.8-.727C2992.06,456.918,2992.542,456.515,2993.342,456.509Z" transform="translate(-2923.584 -455.573)" fill="#fff"/>
      </g>
    </g>
  </g>
</svg>
