<svg xmlns="http://www.w3.org/2000/svg" width="115.355" height="32.226" viewBox="0 0 115.355 32.226">
  <g id="Group_167342" data-name="Group 167342" transform="translate(-814 -188)">
    <path id="Path_61469" data-name="Path 61469" d="M283.532,619.249v9.573l.053.024.274-.306a6.122,6.122,0,0,1,7.2-1.433,5.332,5.332,0,0,1,2.52,2.752,8.8,8.8,0,0,1,.7,3.1c.031.588.046,1.18.046,1.769v9.115a2.258,2.258,0,0,1-.309.043h-4.7a2.749,2.749,0,0,1-.3-.036c0-.146-.021-.268-.021-.392v-8.941a6.569,6.569,0,0,0-.22-1.778,3.007,3.007,0,0,0-.455-.967,2.125,2.125,0,0,0-1.335-.877,3.077,3.077,0,0,0-1.643.084,2.839,2.839,0,0,0-1.809,2.451v9.961c0,.14-.01.282-.017.448a1.994,1.994,0,0,1-.3.044h-4.7a2.594,2.594,0,0,1-.315-.039V619.6c0-.116.01-.231.015-.342Z" transform="translate(597.652 -431.249)" fill="#fff"/>
    <path id="Path_61470" data-name="Path 61470" d="M242.025,642.257a3.077,3.077,0,0,0,.14-.371c.291-1.154.576-2.31.865-3.464.026-.1.063-.2.1-.323.118.048.209.08.294.121a13.559,13.559,0,0,0,4.156,1.215,8.624,8.624,0,0,0,2.78-.039,3.655,3.655,0,0,0,1.446-.614,2.253,2.253,0,0,0,.094-3.452,6.921,6.921,0,0,0-1.947-1.115c-.739-.3-1.492-.557-2.222-.855a11.475,11.475,0,0,1-3.134-1.843,5.939,5.939,0,0,1-2.174-3.569,6.274,6.274,0,0,1,1.7-5.659,7.967,7.967,0,0,1,3.686-2.1,11.927,11.927,0,0,1,3.127-.438,15.491,15.491,0,0,1,4.667.59,10.408,10.408,0,0,1,1.515.581,41.326,41.326,0,0,1-1.183,4.265c-.084-.034-.171-.063-.26-.1a10.847,10.847,0,0,0-3.515-.921,7.662,7.662,0,0,0-2.27.07,3.279,3.279,0,0,0-1.409.626,1.9,1.9,0,0,0-.186,2.843,4.174,4.174,0,0,0,1.309.879q1.333.6,2.694,1.135a13.41,13.41,0,0,1,3.248,1.742,6.012,6.012,0,0,1,2.393,3.67,6.908,6.908,0,0,1-.865,5.165,6.684,6.684,0,0,1-2.308,2.2,9.971,9.971,0,0,1-3.5,1.226,14.414,14.414,0,0,1-3.019.2,16.166,16.166,0,0,1-5.47-1.111c-.257-.1-.513-.224-.759-.342Z" transform="translate(571.978 -430.897)" fill="#fff"/>
    <path id="Path_61471" data-name="Path 61471" d="M253.767,648.308c-.378-1.462-.737-2.927-1.108-4.414.137-.046.236-.084.342-.113a8.5,8.5,0,0,0,2.364-1.067,6.2,6.2,0,0,0,1.758-1.822,1.487,1.487,0,0,0,.144-1.479c-.181-.438-.352-.88-.528-1.32q-2.593-6.438-5.183-12.874c-.154-.383-.311-.762-.465-1.145-.036-.089-.065-.183-.111-.313a2.241,2.241,0,0,1,.3-.046h5.289c.294,0,.313.017.4.294.191.624.38,1.25.569,1.88.583,1.918,1.174,3.833,1.742,5.754.32,1.08.6,2.173.9,3.26a.512.512,0,0,0,.126.245c.026-.091.055-.181.077-.272q1.333-5.38,2.665-10.77c.1-.393.1-.4.5-.4h4.886c.121,0,.241.017.395.031-.038.132-.06.224-.091.315q-1.334,3.761-2.669,7.541c-.556,1.559-1.1,3.122-1.677,4.674a47.155,47.155,0,0,1-2.475,5.71,15.8,15.8,0,0,1-2.064,3.1,9.629,9.629,0,0,1-5.171,3.128c-.121.027-.241.063-.362.1Z" transform="translate(578.333 -428.082)" fill="#fff"/>
    <path id="Path_61472" data-name="Path 61472" d="M316.2,632.951c-.031.284-.058.568-.092.855-.01.086-.036.171-.061.287-.737.01-1.458,0-2.181,0h-6.5c-.721,0-1.443-.009-2.2,0,.026.171.034.32.067.455a3.061,3.061,0,0,0,1.55,1.995,5.531,5.531,0,0,0,2.537.7,14.026,14.026,0,0,0,5.033-.628.794.794,0,0,1,.13-.031.369.369,0,0,1,.075,0,32.877,32.877,0,0,1,.708,3.564c-.084.039-.171.094-.27.132a14.073,14.073,0,0,1-3.169.792,18.393,18.393,0,0,1-3.4.155,9.926,9.926,0,0,1-4.235-1.065,7.259,7.259,0,0,1-3.535-4.046,10.294,10.294,0,0,1-.566-4.274,9.714,9.714,0,0,1,1.21-4.166,7.78,7.78,0,0,1,5.778-4.065,8.938,8.938,0,0,1,4.168.25,6.469,6.469,0,0,1,3.7,2.937,9.268,9.268,0,0,1,1.2,3.617c.022.171.034.342.051.5Zm-11.031-2.539h4.6a14.041,14.041,0,0,0,1.518-.024.858.858,0,0,0,.02-.159,4.709,4.709,0,0,0-.361-1.561,2.706,2.706,0,0,0-.944-1.178,3.094,3.094,0,0,0-3.761.424,4.14,4.14,0,0,0-1.079,2.265A1.368,1.368,0,0,0,305.166,630.413Z" transform="translate(613.157 -428.251)" fill="#fff"/>
    <path id="Path_61473" data-name="Path 61473" d="M271.546,621.218c.262-.159,4.932-1.438,5.2-1.424.01.115.029.236.029.356v6.3a3.652,3.652,0,0,0,.367.034h3.005c.115,0,.227.015.332.024a34.469,34.469,0,0,1,.022,3.91c-.108.01-.226.032-.342.032h-2.98c-.115,0-.229.012-.369.019a2.976,2.976,0,0,0-.031.3q0,3.193,0,6.389a4.658,4.658,0,0,0,.2,1.4,1.238,1.238,0,0,0,1.127.962,9.872,9.872,0,0,0,1.231.021c.292-.014.583-.087.874-.13a1.791,1.791,0,0,1,.193,0c.234,1.234.441,2.472.648,3.723-.116.062-.207.118-.3.159a6.525,6.525,0,0,1-1.925.467,18.7,18.7,0,0,1-2.007.109,6.08,6.08,0,0,1-2.494-.56,4.18,4.18,0,0,1-2.291-2.532,7.725,7.725,0,0,1-.429-2.152q-.056-1.026-.055-2.063v-14.98Z" transform="translate(592.924 -430.862)" fill="#fff"/>
    <path id="Path_61474" data-name="Path 61474" d="M302.884,639.44c.046.244.094.479.135.715q.234,1.349.465,2.7c.053.311.041.342-.251.467a6.324,6.324,0,0,1-1.578.422,13.55,13.55,0,0,1-2.245.171,6.61,6.61,0,0,1-2.431-.491,4.206,4.206,0,0,1-2.458-2.578,7.623,7.623,0,0,1-.426-2.016c-.038-.527-.06-1.055-.06-1.581V621.6c0-.415-.058-.407.415-.535l4.477-1.229c.084-.024.171-.041.255-.06a.468.468,0,0,1,.079.371q0,2,0,4v1.986c0,.106.01.21.019.342.128.012.239.032.35.032h2.98c.123,0,.244.017.354.026a31.712,31.712,0,0,1,.012,3.91c-.109.01-.231.031-.352.031h-2.952c-.114,0-.229.01-.371.019a2.136,2.136,0,0,0-.038.294q0,3.22.01,6.441a5.632,5.632,0,0,0,.145,1.2,1.344,1.344,0,0,0,1.424,1.168,7.176,7.176,0,0,0,1.71-.132c.07-.012.14-.026.212-.036A.742.742,0,0,1,302.884,639.44Z" transform="translate(608.881 -430.878)" fill="#fff"/>
    <path id="Path_61475" data-name="Path 61475" d="M261.7,636.227c.021-.13.027-.209.044-.284q.751-3.352,1.5-6.7l1.026-4.585a3.5,3.5,0,0,0,.082-.61c0-.241-.118-.33-.342-.243a1.514,1.514,0,0,0-.417.24c-.381.309-.752.632-1.125.952-.074.062-.144.128-.246.222-.108-.188-.2-.342-.289-.513a.192.192,0,0,1,.05-.243c.12-.121.236-.246.361-.361a20.093,20.093,0,0,1,2.829-2.212c.342-.214.7-.4,1.058-.581a1.792,1.792,0,0,1,.429-.149.593.593,0,0,1,.762.448,2.431,2.431,0,0,1,.026,1.012,29.671,29.671,0,0,1-.641,2.962c-.1.427-.2.855-.3,1.281a1.3,1.3,0,0,0-.014.171.959.959,0,0,0,.171-.116c.35-.393.684-.8,1.051-1.183s.774-.82,1.2-1.2c.525-.473,1.062-.933,1.622-1.368a10.942,10.942,0,0,1,3.062-1.752,2.577,2.577,0,0,1,.971-.171.9.9,0,0,1,.824.513,1.883,1.883,0,0,1,.2.8,7.441,7.441,0,0,1-.222,2.051q-.843,3.527-1.68,7.05c-.137.583-.251,1.173-.376,1.759a.844.844,0,0,0-.022.132c-.017.227.089.318.309.258a1.346,1.346,0,0,0,.248-.1,13.464,13.464,0,0,0,1.752-1.092c.085-.06.171-.111.268-.171a1.391,1.391,0,0,1,.356.612c-.171.161-.316.342-.49.484a16.135,16.135,0,0,1-2.691,1.857c-.385.21-.78.4-1.176.584a1.384,1.384,0,0,1-1.07.077.918.918,0,0,1-.569-.5,1.448,1.448,0,0,1-.142-.913c.186-.875.376-1.749.585-2.619.494-2.081,1-4.158,1.5-6.238a8.328,8.328,0,0,0,.171-1,1.428,1.428,0,0,0-.014-.451.491.491,0,0,0-.5-.439,1.509,1.509,0,0,0-.759.13,4.79,4.79,0,0,0-1.133.759,15,15,0,0,0-2.233,2.458c-.5.655-.957,1.337-1.424,2.016a1.551,1.551,0,0,0-.207.46c-.426,1.539-.732,3.118-1.026,4.693-.036.193-.077.386-.1.581a.356.356,0,0,1-.279.318c-.684.217-1.381.441-2.072.663l-.588.186C261.932,636.169,261.847,636.189,261.7,636.227Z" transform="translate(585.94 -429.916)" fill="#fff"/>
    <path id="Path_61476" data-name="Path 61476" d="M294.613,640.7a2.473,2.473,0,0,1-.3.036h-4.672a2.645,2.645,0,0,1-.3-.031c-.017-.087-.036-.154-.043-.222a1.772,1.772,0,0,1,0-.215v-16.5a2.226,2.226,0,0,1,.313-.048h4.725a1.978,1.978,0,0,1,.275.038Z" transform="translate(605.523 -428.082)" fill="#fff"/>
    <path id="Path_61477" data-name="Path 61477" d="M261.623,636.116h-.879a.81.81,0,0,1-.053-.171,5.469,5.469,0,0,1,.8-3.333,3.535,3.535,0,0,1,2.477-1.583,5.024,5.024,0,0,1,2.862.364c.874.366,1.733.766,2.6,1.159s1.667.786,2.506,1.161a2.889,2.889,0,0,0,1.3.274,2.238,2.238,0,0,0,2.063-1.3,5.016,5.016,0,0,0,.3-.855.367.367,0,0,1,.267-.3c.154-.045.3-.111.455-.171.074-.024.15-.034.229-.051a.923.923,0,0,1,.043.547,6.931,6.931,0,0,1-.807,2.735,3.725,3.725,0,0,1-2.711,1.949,4.2,4.2,0,0,1-2.289-.26c-.833-.326-1.651-.684-2.469-1.048-.915-.407-1.816-.846-2.735-1.243a6.38,6.38,0,0,0-1.152-.342,2.316,2.316,0,0,0-1.2.063,1.941,1.941,0,0,0-1.224,1.13,7.833,7.833,0,0,0-.287.891C261.679,635.842,261.657,635.965,261.623,636.116Z" transform="translate(585.21 -422.94)" fill="#fff"/>
  </g>
</svg>
